<svg width="133" height="65" viewBox="0 0 133 65" fill="none" xmlns="http://www.w3.org/2000/svg">
<path d="M6.2876 54.3833L9.81055 62.8003C9.91211 63.0373 10.0221 63.1981 10.1406 63.2827C10.2591 63.3674 10.4157 63.4097 10.6104 63.4097H10.9531V64H6.54785V63.4097H6.96045C7.2863 63.4097 7.51058 63.3737 7.6333 63.3018C7.75602 63.2298 7.81738 63.1346 7.81738 63.0161C7.81738 62.923 7.79199 62.8151 7.74121 62.6924L7.01123 60.9531H3.50732L3.16455 61.7466C3.0249 62.0767 2.95508 62.3221 2.95508 62.4829C2.95508 62.758 3.05664 62.9823 3.25977 63.1558C3.46289 63.325 3.74007 63.4097 4.09131 63.4097H4.38965V64H0.828613V63.4097H1.03174C1.26025 63.4097 1.46126 63.3377 1.63477 63.1938C1.88021 62.9907 2.07064 62.7305 2.20605 62.4131L5.57666 54.3833H6.2876ZM5.26562 56.7573L3.76758 60.3311H6.75098L5.26562 56.7573Z" fill="#F5F1D4"/>
<path d="M26.8804 54.6118H32.3775C33.3085 54.6118 34.0575 54.8615 34.6245 55.3608C35.1916 55.8602 35.4751 56.4717 35.4751 57.1953C35.4751 57.7454 35.3101 58.2279 34.98 58.6426C34.6542 59.0531 34.2141 59.3514 33.6597 59.5376C33.1096 59.7238 32.5637 59.8169 32.022 59.8169H30.2828V62.8765C30.2828 63.0457 30.3314 63.1769 30.4287 63.27C30.5261 63.3631 30.6509 63.4097 30.8033 63.4097H31.8824V64H26.8804V63.4097H27.7183C27.9045 63.4097 28.0441 63.3631 28.1372 63.27C28.2346 63.1769 28.2832 63.0457 28.2832 62.8765V55.7227C28.2832 55.5618 28.2346 55.4349 28.1372 55.3418C28.0399 55.2487 27.9214 55.2021 27.7818 55.2021H26.8804V54.6118ZM30.2828 59.2393H31.4444C31.8506 59.2393 32.2103 59.1525 32.5235 58.979C32.8409 58.8055 33.0651 58.596 33.1963 58.3506C33.3317 58.1009 33.3995 57.6989 33.3995 57.1445C33.3995 56.3828 33.1942 55.8454 32.7837 55.5322C32.4833 55.3079 31.9712 55.1958 31.2476 55.1958C30.8287 55.1958 30.562 55.2318 30.4478 55.3037C30.3378 55.3714 30.2828 55.4899 30.2828 55.6592V59.2393Z" fill="#F5F1D4"/>
<path d="M51.6246 54.6118H56.4361V55.2021H55.5665C55.3803 55.2021 55.2449 55.2402 55.1602 55.3164C55.0756 55.3883 55.0333 55.4963 55.0333 55.6401V62.9082C55.0333 63.0775 55.0777 63.1981 55.1666 63.27C55.2808 63.3631 55.4459 63.4097 55.6617 63.4097H56.4361V64H51.6246V63.4097H52.3609C52.6148 63.4097 52.7926 63.3674 52.8941 63.2827C52.9999 63.1981 53.0528 63.0732 53.0528 62.9082V55.7227C53.0528 55.5449 53.0041 55.4137 52.9068 55.3291C52.8137 55.2445 52.6656 55.2021 52.4625 55.2021H51.6246V54.6118Z" fill="#F5F1D4"/>
<path d="M77.4225 54.3833L80.9454 62.8003C81.047 63.0373 81.157 63.1981 81.2755 63.2827C81.394 63.3674 81.5506 63.4097 81.7452 63.4097H82.088V64H77.6827V63.4097H78.0953C78.4212 63.4097 78.6455 63.3737 78.7682 63.3018C78.8909 63.2298 78.9523 63.1346 78.9523 63.0161C78.9523 62.923 78.9269 62.8151 78.8761 62.6924L78.1461 60.9531H74.6422L74.2994 61.7466C74.1598 62.0767 74.09 62.3221 74.09 62.4829C74.09 62.758 74.1915 62.9823 74.3946 63.1558C74.5978 63.325 74.875 63.4097 75.2262 63.4097H75.5245V64H71.9635V63.4097H72.1666C72.3951 63.4097 72.5961 63.3377 72.7696 63.1938C73.0151 62.9907 73.2055 62.7305 73.3409 62.4131L76.7115 54.3833H77.4225ZM76.4005 56.7573L74.9025 60.3311H77.8859L76.4005 56.7573Z" fill="#F5F1D4"/>
<path d="M97.9772 54.6118H102.878C103.673 54.6118 104.321 54.7155 104.82 54.9229C105.324 55.126 105.698 55.4053 105.944 55.7607C106.189 56.112 106.312 56.5034 106.312 56.9351C106.312 57.6248 106.003 58.1834 105.385 58.6108C104.915 58.9367 104.192 59.1483 103.214 59.2456C103.705 59.326 104.082 59.4551 104.344 59.6328C104.611 59.8063 104.845 60.0666 105.048 60.4136C105.315 60.8706 105.533 61.4186 105.702 62.0576C105.808 62.4681 105.901 62.7262 105.982 62.832C106.062 62.9378 106.153 62.9907 106.255 62.9907C106.534 62.9907 106.701 62.6204 106.756 61.8799H107.315C107.272 62.667 107.097 63.2319 106.788 63.5747C106.479 63.9132 106.043 64.0825 105.48 64.0825C105.078 64.0825 104.754 64 104.509 63.835C104.268 63.6699 104.084 63.4287 103.957 63.1113C103.881 62.9294 103.775 62.502 103.639 61.8291C103.483 61.042 103.341 60.513 103.214 60.2422C103.091 59.9714 102.93 59.7703 102.732 59.6392C102.533 59.508 102.287 59.4424 101.995 59.4424H101.303V62.9019C101.303 63.0542 101.348 63.1706 101.437 63.251C101.564 63.3568 101.712 63.4097 101.881 63.4097H102.732V64H97.9772V63.4097H98.7135C98.904 63.4097 99.0478 63.361 99.1452 63.2637C99.2425 63.1621 99.2912 63.0225 99.2912 62.8447V55.7671C99.2912 55.5724 99.2467 55.4307 99.1579 55.3418C99.069 55.2487 98.942 55.2021 98.777 55.2021H97.9772V54.6118ZM101.303 58.8711H102.097C102.799 58.8711 103.354 58.6912 103.76 58.3315C104.065 58.0565 104.217 57.5931 104.217 56.9414C104.217 56.3405 104.067 55.9025 103.766 55.6274C103.466 55.3481 102.945 55.2085 102.205 55.2085C101.807 55.2085 101.557 55.2529 101.456 55.3418C101.354 55.4264 101.303 55.619 101.303 55.9194V58.8711Z" fill="#F5F1D4"/>
<path d="M122.956 54.6118H127.628V55.2021H126.981C126.752 55.2021 126.593 55.2318 126.505 55.291C126.416 55.346 126.371 55.4201 126.371 55.5132C126.371 55.619 126.409 55.7396 126.486 55.875L128.441 59.2393L129.812 56.5098C129.926 56.2855 129.983 56.0781 129.983 55.8877C129.983 55.6761 129.909 55.509 129.761 55.3862C129.613 55.2635 129.389 55.2021 129.088 55.2021H128.802V54.6118H132.433V55.2021C132.014 55.2106 131.678 55.2952 131.424 55.4561C131.17 55.6126 130.954 55.8665 130.777 56.2178L128.891 59.9438V62.8955C128.891 63.069 128.938 63.1981 129.031 63.2827C129.128 63.3674 129.279 63.4097 129.482 63.4097H130.453V64H125.311V63.4097H126.276C126.496 63.4097 126.651 63.3695 126.739 63.2891C126.828 63.2044 126.873 63.0732 126.873 62.8955V60.2739L124.346 55.9258C124.186 55.6465 124.014 55.4561 123.832 55.3545C123.654 55.2529 123.43 55.2021 123.159 55.2021H122.956V54.6118Z" fill="#F5F1D4"/>
<path d="M16.664 43.824L16.28 44.208L15.96 44.656L14.744 45.36L14.232 45.68L13.528 45.808L13.016 46.064H12.376L10.968 46.128H10.456L9.87997 46.192H9.30397L8.59997 46.064H7.38397L6.80797 46L6.10397 45.808L5.59197 45.552L5.01597 45.36L4.37597 44.976L3.79997 44.592L3.35197 44.336L2.96797 43.76L2.19997 42.736L1.94397 42.096L1.68797 41.52V40.944L1.49597 40.304L1.55997 38.896L1.62397 38.256V37.104L1.55997 36.336V35.184L1.62397 34.544L1.49597 33.84V33.2L1.62397 32.624L1.49597 32.048V31.28L1.62397 30.768L1.55997 30.128L1.49597 29.424L1.62397 28.72V28.208L1.49597 27.568L1.62397 26.288L1.49597 25.712V25.008L1.62397 24.304L1.49597 23.664V23.152L1.62397 22.448V21.936L1.55997 21.296L1.62397 20.656L1.55997 19.888L1.62397 19.312L1.49597 18.736V18.032L1.55997 17.328V17.392V16.56L1.62397 15.856L1.49597 15.216L1.62397 13.936V13.168L1.49597 12.592L1.62397 11.888V11.312L1.49597 10.608L1.62397 9.968L1.68797 9.904V9.776L1.55997 9.712L1.62397 9.584V9.264L1.49597 9.2L1.55997 9.072H1.62397V8.688L1.55997 8.176H1.68797L1.55997 8.048V7.92L1.62397 7.088L1.68797 6.448L1.81597 5.936L1.94397 5.36L2.51997 4.208L2.90397 3.568L3.35197 3.12L3.92797 2.672L4.31197 2.416L4.95197 1.968L5.52797 1.776L6.23197 1.456H6.80797L7.31997 1.328L8.72797 1.2H10.968L12.248 1.264L12.888 1.328L13.656 1.584L14.168 1.776L14.744 1.968L15.384 2.352L15.896 2.736L16.28 3.12L16.792 3.696L17.432 4.72L17.688 5.232L17.944 5.872L18.072 6.576L18.2 7.152V8.496L18.136 9.136L18.264 10.544L18.008 11.888L17.624 12.336L16.28 12.528L15.64 12.592L12.952 12.336L12.504 11.952L12.376 10.736L12.504 9.968V8.88L12.568 8.944L12.696 8.688L12.568 8.624L12.44 8.752L12.504 8.624V8.56L12.568 8.304L12.184 7.664L11.736 7.152L10.52 7.024L9.94397 7.088L9.17597 7.024L7.95997 7.28L7.44797 7.792L7.38397 9.008L7.31997 9.712L7.25597 9.648L7.31997 9.84V10.544L7.38397 11.12V11.696L7.31997 12.4L7.25597 12.976V13.616L7.31997 14.448L7.38397 15.024V15.664L7.31997 16.24V17.584L7.19197 18.288L7.12797 18.224L6.93597 18.416H6.99997L6.93597 18.608L6.87197 18.544H6.99997L7.06397 18.48L7.19197 18.544H7.31997L7.25597 18.992L7.38397 19.632L7.25597 20.144L7.06397 20.08L6.99997 20.272L7.06397 20.464L7.19197 20.528L7.25597 20.464L7.12797 20.592V20.784L7.19197 20.848L7.38397 21.68L7.31997 22.32L7.38397 22.96L7.25597 23.536L7.31997 24.176L7.25597 24.88V25.008L7.06397 25.2L6.99997 25.392H7.06397L7.12797 25.456H7.19197L7.31997 26.096V28.016L7.25597 28.592L7.38397 29.168L7.25597 29.744L7.19197 29.936L7.38397 30.704V31.92L7.31997 32.624V33.328L7.25597 33.968V34.544L7.31997 35.12L7.38397 35.888V36.464L7.31997 37.04L7.38397 37.68V38.448L7.51197 39.792L7.89597 40.112L9.23997 40.304L9.75197 40.24L10.328 40.304L11.096 40.368L11.288 40.432L11.8 40.048L12.248 39.728L12.44 38.32L12.376 37.552L12.504 36.976L12.568 35.568L12.952 35.056L14.936 34.992L15.704 34.928H16.216L17.56 35.056L18.008 35.504L18.136 36.912V40.24L18.008 40.944L17.752 41.648L17.624 42.352L17.304 42.928L17.048 42.8V42.928L16.92 43.184L17.112 43.248L17.176 43.184L16.664 43.824ZM17.048 36.272L17.112 36.208L17.24 36.272L17.304 36.08L17.24 35.952L17.112 36.016L17.048 35.952V36.272ZM17.816 7.088L17.944 7.024L18.136 6.96L18.072 7.024H18.008L17.88 6.896L17.816 7.088ZM16.792 10.224V10.16L16.856 10.032H16.664L16.792 10.224ZM12.632 9.328L12.504 9.392L12.632 9.648L12.696 9.584L12.76 9.456L12.696 9.328H12.632ZM13.912 12.016H13.656V12.272L13.912 12.336V12.016ZM15 8.368L15.128 8.432L15 8.56L15.064 8.624L15 8.688L15.128 8.56V8.624L15 8.368ZM16.024 8.24L16.088 8.176L16.152 8.304L16.088 8.048L15.96 8.112L16.024 8.24ZM16.024 10.608L16.088 10.544V10.48L16.152 10.288L16.024 10.352H15.96L16.024 10.608ZM15.256 7.088H15.448V6.832H15.32L15.256 7.088ZM14.808 3.312L15.064 3.44L15.192 3.376H15.32L15.192 3.184H15L14.808 3.312ZM14.616 7.792L14.552 7.728L14.488 7.792H14.616ZM14.104 9.072H14.232V8.88H14.168V9.008V8.944L14.104 9.072ZM14.04 10.224L14.104 10.352H14.232V10.096L13.976 10.16L14.04 10.224ZM13.784 9.776L13.592 9.904H13.848L14.04 9.968L13.912 9.84L13.976 9.648H13.848L13.784 9.776ZM13.592 7.6L13.784 7.664H13.72L13.848 7.408L13.656 7.28L13.528 7.408L13.592 7.6ZM13.528 10.288L13.656 10.352L13.72 10.224H13.464L13.528 10.288ZM12.568 2.288V2.352H12.632L12.76 2.16L12.696 2.224L12.632 2.16L12.44 2.096L12.504 2.288H12.568ZM12.44 3.696L12.632 3.632L12.76 3.696L12.696 3.568L12.504 3.44L12.568 3.504L12.44 3.696ZM12.504 5.488H12.696L12.568 5.232L12.376 5.296L12.44 5.424L12.504 5.488ZM12.376 7.216L12.568 7.408H12.76L12.888 7.152V7.024L12.824 6.896L12.568 6.96L12.376 7.216ZM11.288 6.512L11.16 6.384H11.288L11.032 6.448L11.096 6.576L11.032 6.64L11.096 6.704H10.968L10.84 6.832L10.904 6.768L11.16 6.896V6.768H11.224V6.64L11.288 6.704V6.512ZM11.096 5.68H11.224L11.032 5.552V5.616L11.096 5.68ZM12.248 5.104L12.184 4.912H12.056L12.12 5.04L12.248 5.104ZM11.8 5.936H11.736L11.928 6.064V6.192L11.992 6L11.8 5.936ZM12.184 6.32L11.992 6.256L11.8 6.448L11.992 6.64V6.704L11.928 6.768L11.992 6.896L11.928 7.152L11.992 7.216L12.184 7.28L12.248 7.216L12.312 6.96L12.248 6.832L12.184 6.768V6.64L12.312 6.576L12.184 6.32ZM12.248 3.248L12.184 3.504V3.632L12.248 3.44L12.184 3.376L12.248 3.248ZM11.992 2.672V2.736L12.184 2.672V2.544L12.12 2.48L11.864 2.352L11.8 2.544L11.992 2.672ZM11.736 5.552L11.8 5.488L11.928 5.552L12.12 5.424H11.992L12.056 5.296L11.864 5.36V5.424L11.736 5.552ZM11.608 6.256H11.736L11.416 6.064V6.192L11.608 6.256ZM11.416 6.768L11.544 6.704L11.608 6.576L11.48 6.512L11.416 6.448L11.352 6.512L11.416 6.768ZM11.096 4.656V4.848H11.352L11.416 4.656L11.224 4.592L11.096 4.656ZM10.904 3.12H11.224L11.16 2.8L11.096 2.672L10.904 2.928L10.84 3.056L10.904 3.12ZM10.52 4.656L10.776 4.72L10.712 4.592L10.52 4.528H10.648L10.52 4.656ZM10.008 2.992L9.94397 3.12L10.2 3.248L10.264 3.12L10.072 2.928L10.008 2.992ZM9.94397 6H10.072L10.008 5.808L9.87997 6.064L9.94397 6ZM8.79197 2.8L8.85597 2.928H8.72797L8.98397 3.12L9.04797 2.928L8.79197 2.8ZM8.66397 1.968V2.224H8.72797L8.85597 2.288V1.776L8.79197 1.84H8.53597L8.66397 1.968ZM8.34397 6.832L8.53597 6.768H8.59997L8.47197 6.576V6.64L8.40797 6.704H8.21597L8.34397 6.832ZM6.67997 13.808V14L6.93597 13.872V13.68L6.67997 13.808ZM7.06397 10.224L6.99997 10.032L6.93597 10.096L6.74397 10.16L6.87197 10.224H7.06397ZM6.80797 2.16H6.87197V2.288H6.99997V2.096L6.87197 1.904L6.74397 2.096L6.80797 2.16ZM6.55197 2.8L6.67997 2.736H6.74397V2.608L6.67997 2.544H6.55197V2.8ZM6.67997 14.704H6.74397L6.67997 14.832L6.87197 14.704L6.80797 14.64L6.93597 14.704H6.99997L7.06397 14.512L7.12797 14.448V14.384L6.93597 14.256L6.87197 14.128L6.48797 14.512L6.67997 14.704ZM6.29597 2.288L6.35997 2.16L6.23197 2.096V1.968L6.16797 2.16L6.29597 2.288ZM6.16797 29.936V29.872H6.35997L6.29597 29.744L6.23197 29.68L6.03997 29.808L6.16797 29.936ZM6.16797 22.256L6.29597 22.192L6.16797 22L6.10397 22.064L6.03997 22.256H6.16797ZM6.48797 21.616L6.29597 21.552V21.36L6.42397 21.296L6.16797 21.232L5.97597 21.552L6.03997 21.808L6.16797 21.744L6.23197 21.872L6.48797 21.616ZM5.97597 27.952L6.10397 27.76H5.97597L5.91197 27.632V27.568L5.78397 27.632L5.59197 27.696L5.65597 28.016L5.71997 27.952L5.84797 28.016L5.97597 27.952ZM6.03997 19.696L6.16797 19.888L6.10397 19.76L6.16797 19.952L6.29597 20.016H6.35997L6.42397 19.76L6.29597 19.632V19.504L6.23197 19.376L6.16797 19.504L6.03997 19.376V19.696ZM6.16797 19.248H6.23197L6.03997 19.056L5.97597 19.184L6.16797 19.248ZM5.91197 21.36L5.71997 21.232L5.65597 21.36L5.84797 21.552V21.488L6.03997 21.36L5.91197 21.168V21.36ZM5.91197 16.624L5.97597 16.88L6.10397 16.816H6.23197L5.91197 16.624ZM6.03997 11.184V11.12L5.91197 11.056H5.84797L5.78397 11.376L6.03997 11.184ZM5.97597 8.24V8.368L6.10397 8.176V8.112L5.97597 8.048H5.84797L5.91197 8.176L5.97597 8.24ZM5.65597 2.16V2.224H5.71997L5.84797 2.16L5.71997 2.032L5.52797 2.16H5.65597ZM5.65597 16.112L5.71997 16.176V15.92L5.59197 15.728L5.46397 15.664V15.792H5.52797V15.984L5.46397 16.112H5.65597ZM5.65597 17.456V17.328L5.46397 17.392H5.33597L5.46397 17.456H5.65597ZM5.01597 16.176L4.88797 16.368L5.07997 16.624V16.816L5.20797 16.752L5.33597 16.816L5.27197 16.56H5.14397L5.27197 16.624L5.14397 16.496L5.20797 16.432L5.14397 16.304H5.27197L5.07997 16.24L5.20797 16.112L5.07997 15.984L5.01597 16.176ZM4.75997 3.952L4.88797 4.08L4.95197 4.016L4.75997 3.824V3.952ZM4.69597 11.184L4.63197 11.248L4.56797 11.376L4.75997 11.44L4.82397 11.504H4.88797L4.95197 11.44L4.88797 11.312L4.75997 11.248L4.69597 11.184ZM4.75997 13.488V13.68L4.82397 13.616V13.424H4.69597L4.75997 13.488ZM4.63197 12.08L4.56797 12.336L4.69597 12.272L4.63197 12.08ZM4.75997 3.952L4.50397 4.08L4.63197 4.272L4.75997 3.952ZM4.11997 16.496H4.24797L4.31197 16.432H4.18397L4.11997 16.496ZM3.60797 7.216L3.73597 7.408L3.92797 7.344L4.05597 7.216L3.79997 6.896L3.60797 7.216ZM3.79997 19.568L3.92797 19.632L3.99197 19.376L4.05597 19.312L3.99197 19.44L3.73597 19.504L3.79997 19.568ZM3.86397 36.144H3.99197L4.05597 36.336H4.18397V36.144H4.24797L4.31197 35.952L4.24797 36.016L3.92797 35.888V36.016L3.86397 36.144ZM3.67197 3.76L3.99197 3.632L3.92797 3.312L3.86397 3.056L3.67197 3.248V3.76ZM3.41597 5.04L3.54397 5.104L3.67197 5.232V5.04H3.41597ZM3.47997 4.976L3.54397 4.848L3.41597 4.72V4.976H3.47997ZM3.09597 11.12L3.28797 11.056L3.15997 10.864L2.96797 10.992L3.09597 11.12ZM2.64797 5.808L2.71197 5.936L2.77597 5.744H2.51997L2.64797 5.808ZM2.51997 6.128V6.192L2.64797 6.128L2.45597 6.064L2.51997 6.128ZM1.75197 24.624L1.49597 24.688L1.55997 24.752H1.75197L1.81597 24.688L1.75197 24.624ZM1.87997 7.728L1.75197 7.6L1.68797 7.792H1.75197L1.81597 7.856L1.87997 7.728ZM2.19997 6.064L2.26397 6L2.19997 5.936L2.07197 5.872H1.81597L1.94397 6.192L2.19997 6.064ZM2.26397 39.728L2.19997 39.664L2.13597 39.792L2.07197 39.728L2.19997 39.92H2.32797L2.39197 39.792L2.26397 39.728ZM2.39197 9.904L2.58397 9.712H2.64797L2.71197 9.52L2.58397 9.648V9.52L2.39197 9.584V9.904ZM2.51997 26.096L2.64797 26.032L2.58397 25.712H2.26397L2.32797 25.904H2.45597V26.032L2.51997 26.096ZM2.90397 32.432L2.77597 32.624L2.83997 32.752L2.96797 32.496L2.90397 32.432ZM3.03197 28.464L2.96797 28.336H2.90397L2.71197 28.272L2.77597 28.4L2.58397 28.528V28.4L2.45597 28.592V28.72L2.64797 28.656L2.71197 28.72L2.77597 28.848V28.976L2.90397 29.04L3.03197 28.912V28.464ZM3.03197 22.64H2.83997L2.64797 22.768L2.90397 22.896L3.03197 23.024L2.96797 22.832L3.03197 22.64ZM3.22397 22.192H3.09597L2.96797 22.256L3.15997 22.512L3.03197 22.384L3.22397 22.512H3.28797L3.35197 22.256L3.22397 22.192ZM3.67197 10.096L3.86397 9.84L3.92797 9.712L3.73597 9.584H3.35197V9.776L3.28797 9.968V10.096H3.67197ZM3.73597 36.656L3.86397 36.528H3.73597L3.60797 36.72L3.73597 36.656ZM4.31197 36.976L4.11997 36.784L4.05597 36.848L3.92797 36.912L3.67197 37.168L3.92797 37.296L3.86397 37.424L4.11997 37.36H4.18397L4.24797 37.296V37.04L4.31197 36.976ZM4.69597 33.328V33.264L4.56797 33.136L4.31197 33.328L4.43997 33.584V33.456L4.69597 33.52V33.328ZM5.01597 31.216L4.95197 31.152L4.69597 31.28L4.63197 31.408V31.536H4.95197V31.344L5.01597 31.216ZM5.07997 20.784L5.14397 20.72L5.20797 20.592L5.07997 20.464L4.82397 20.528V20.592L4.95197 20.656L5.07997 20.784ZM5.14397 37.936L5.20797 38.064V38.128L5.33597 38L5.14397 37.936ZM5.14397 11.376V11.44L5.33597 11.504L5.39997 11.376H5.14397ZM5.52797 22.768V22.896L5.65597 22.576L5.52797 22.64L5.46397 22.576L5.33597 22.832L5.52797 22.768ZM5.91197 29.488L5.78397 29.04L5.59197 29.104H5.52797L5.46397 29.232L5.65597 29.552L5.91197 29.488ZM6.03997 32.56L5.84797 32.496L5.78397 32.432L5.91197 32.688H5.97597L6.03997 32.56ZM5.97597 31.536H5.91197L5.71997 31.6L5.65597 31.728L5.78397 31.792L5.65597 31.984L5.84797 32.048L5.97597 31.856L6.10397 31.792L5.97597 31.536ZM6.10397 31.024L6.03997 30.96L6.10397 30.832L5.91197 30.704L5.97597 30.896L5.91197 31.088L6.03997 31.152L6.10397 31.088V31.024ZM6.35997 34.288L6.42397 34.16L6.23197 33.968V34.16L6.10397 34.096L6.23197 34.352V34.224L6.35997 34.288ZM6.74397 44.528L6.55197 44.592H6.29597L6.42397 44.848V44.784V44.912L6.48797 44.976L6.42397 45.104L6.67997 44.976H6.80797V44.848L6.74397 44.528ZM6.99997 16.496L7.19197 16.432L7.31997 16.176L7.06397 15.984L6.93597 16.048L6.74397 16.176L6.67997 16.368L6.99997 16.496ZM8.08797 43.504L7.89597 43.376L7.95997 43.248L7.63997 43.44V43.504L7.70397 43.696V43.76L7.89597 43.888H8.08797V43.824H8.27997L8.21597 43.696L8.27997 43.44L8.08797 43.504ZM12.504 43.44L12.376 43.312L12.184 43.504L12.248 43.632L12.44 43.568L12.504 43.44ZM13.912 39.984L13.784 39.856L13.656 40.048L13.592 40.176L13.784 40.112L13.848 39.984H13.912ZM14.04 39.408L13.912 39.6L13.848 39.728V39.856L13.976 39.984L14.232 40.112L14.36 39.92L14.296 39.728L14.04 39.408ZM16.024 41.648L15.96 41.584L16.088 41.648H16.344L16.408 41.392L16.344 41.328H16.088L16.024 41.264V41.648ZM15.192 43.952L15.128 44.016H14.872L14.936 44.272L14.872 44.336L15 44.272L15.128 44.144L15.192 43.952ZM16.216 42.928H15.896L15.768 42.864L15.576 43.248L15.768 43.376V43.312L15.832 43.376H16.024L15.96 43.312L16.152 43.248V43.056L16.28 42.992L16.216 42.928ZM16.856 42.672L16.664 42.48L16.6 42.544H16.536L16.408 42.736H16.28L16.344 42.8L16.28 42.928V42.992L16.6 42.928L16.792 42.992H16.92L16.856 42.672Z" fill="#F5F1D4"/>
<path d="M40.014 26.16V26.8L39.886 27.504L39.95 28.016V29.424L40.014 29.936L39.95 30.576L39.886 31.408V31.856L40.014 33.264V35.184L39.95 35.76L39.886 36.4L40.014 37.104L39.886 37.68L40.014 38.384L39.886 39.536V40.24L40.014 40.88L39.886 41.52L40.014 42.16V44.144L39.758 45.488L39.31 45.936L38.094 46.064L37.326 45.936L36.75 46.128L36.174 46.064L34.766 45.936L34.318 45.36L34.126 44.08V43.504L34.254 42.864L34.19 42.288L34.126 41.584L34.254 40.944L34.19 40.24V39.664L34.126 38.96L34.19 38.384L34.126 37.744V37.04L34.254 36.464L33.934 35.248L33.486 34.672L32.206 34.48H31.054L29.582 34.736L29.198 35.12L29.07 36.528L29.006 37.104V37.68L29.07 38.32V39.664L29.134 40.304L29.006 40.944L29.134 41.648L29.006 42.288L29.134 43.568L29.07 44.208L28.942 45.36L28.366 45.808L27.214 46.128L26.51 45.936L25.806 46.128L23.822 45.872L23.502 45.36L23.246 44.08L23.31 43.504L23.374 42.8V42.288L23.246 41.584L23.374 41.072L23.246 40.304L23.31 39.792L23.374 39.088L23.31 38.576V37.808L23.246 37.36L23.374 36.656L23.31 36.08L23.374 35.376V34.864L23.246 33.584V32.816L23.31 32.944L23.374 32.688V32.432L23.31 32.24H23.438L23.374 32.048L23.438 31.92L23.374 31.792L23.246 31.088L23.374 30.512V29.104L23.246 28.336L23.31 27.824L23.246 27.056V24.944L23.374 24.24L23.31 23.6L23.374 22.96V21.616L23.246 21.04L23.31 20.336L23.246 19.696L23.374 19.056L23.31 18.48V17.84L23.374 17.136L23.246 16.624L23.374 15.856V15.216L23.31 14.64L23.246 14L23.31 13.36V12.784L23.246 12.144L23.374 11.44L23.31 10.864L23.374 10.096L23.246 9.456L23.374 8.88L23.31 8.176L23.374 6.96V6.384L23.566 5.552V5.04L23.822 4.4L24.27 3.824L24.59 3.312L25.102 2.8L25.486 2.288L26.062 1.968L26.19 2.096L26.382 2.16H26.318L26.51 1.776H26.702L27.15 1.584L27.854 1.456L28.494 1.392L29.134 1.264H30.35L30.926 1.136H32.27L32.91 1.264H34.126L34.83 1.392H35.47L36.174 1.584L36.686 1.776L37.198 2.032L37.774 2.416L38.67 3.44L38.99 3.824L39.374 4.4L39.63 5.04L39.758 5.744L39.886 6.896V8.368L39.95 8.88L40.014 9.584L39.886 10.16V12.208L40.014 13.488L39.95 14.128L40.014 14.704V15.344L39.95 16.112L40.014 16.752L39.95 17.392L40.014 17.904L39.95 18.672V19.248L39.886 20.016L39.95 20.656L39.886 21.296L40.014 21.808L39.886 22.448L40.014 23.216L39.886 23.92L39.758 23.856L39.694 23.92L39.63 23.792L39.566 23.856L39.502 23.728L39.374 23.984L39.502 24.304V24.24L39.566 24.304H39.822L39.886 24.496H39.95L39.822 24.432L39.758 24.496L39.822 24.688L39.95 24.88L39.886 25.456L40.014 26.16ZM39.63 18.608L39.438 18.8L39.566 18.992H39.758L39.694 18.928L39.758 18.864L39.63 18.608ZM39.566 9.52V9.456H39.502L39.438 9.52H39.566ZM25.742 10.672L25.678 10.544V10.416L25.486 10.544L25.742 10.672ZM25.422 14.512L25.614 14.384V14.256H25.55L25.422 14.128V14.512ZM25.102 7.152L25.23 7.216V7.024L25.102 6.96L24.974 7.152H25.102ZM24.462 15.472V15.216L24.206 15.28V15.216L24.27 15.472H24.462ZM23.694 35.312L23.566 35.12L23.438 35.248L23.31 35.312L23.502 35.44L23.758 35.504L23.694 35.632V35.312ZM24.078 35.76V35.568V35.632L23.886 35.568L23.758 35.824H23.95L24.078 35.76ZM24.206 36.08L24.014 36.016V36.144H24.27H24.142L24.206 36.08ZM24.27 34.736H24.142V34.544L23.95 34.736H23.822V34.928H23.95V35.056L24.014 35.12L24.078 34.992H24.27V34.736ZM24.526 25.008L24.398 24.944L24.334 25.136H24.462L24.526 25.008ZM24.654 38.704L24.718 38.768L24.846 38.64H24.654V38.704ZM24.718 21.936L24.654 22L24.526 22.192L24.654 22.256L24.782 22.128H24.91L24.718 21.936ZM25.038 8.752L25.23 8.816L25.102 8.56L25.038 8.304V8.368H24.91L24.782 8.56L24.91 8.624L25.038 8.752ZM25.23 26.544V26.736L25.294 26.8H25.422L25.294 26.608L25.23 26.544ZM25.678 22.128L25.486 22.192H25.102L25.166 22.384L25.358 22.448V22.32L25.422 22.448H25.678V22.128ZM25.998 21.232H25.806L25.742 21.296L25.678 21.488L25.55 21.616V21.744L25.614 21.68H25.87V21.552H26.062L25.998 21.232ZM35.022 6.448L35.214 6.32H35.086V6.192L35.022 6.384V6.448ZM34.702 4.208L34.894 4.016H34.702V4.208ZM33.806 2.416V2.224L33.678 2.096H33.614L33.678 2.352L33.806 2.416ZM33.358 2.096V2.224L33.614 2.096V2.032L33.55 1.84L33.422 1.968L33.358 2.096ZM31.758 3.824V3.76L31.886 3.696L31.822 3.632L31.758 3.504L31.694 3.568L31.758 3.824ZM31.502 3.568L31.63 3.376L31.566 3.184L31.374 3.44L31.502 3.568ZM31.054 5.616L30.862 5.68H30.67L30.734 5.808V5.936L31.054 5.616ZM30.862 5.936L30.798 6.128V6.192L30.926 6.32L30.99 6.064L30.862 5.936ZM30.606 2.096L30.67 2.16L30.862 2.032V1.904L30.798 1.776L30.734 1.904L30.542 2.096H30.606ZM29.902 2.16H29.838L30.03 2.224H30.158V2.16L30.222 1.968L30.094 1.84V1.968L30.158 1.904H29.966L29.838 2.032L29.902 2.16ZM30.094 4.144L30.03 4.272V4.144L30.286 4.016L30.158 3.952L30.222 3.888L29.966 3.696L29.838 3.888L29.902 3.952L29.966 4.08L30.094 4.144ZM28.622 2.736L28.686 2.8V2.608H28.814L28.558 2.544L28.622 2.736ZM28.75 5.872L28.686 5.744L28.558 5.616L28.494 5.68V5.808L28.75 5.872ZM27.918 1.904L28.11 2.032L28.174 1.968V1.776L28.11 1.648L27.918 1.712H27.854V1.904H27.918ZM27.534 35.76L27.79 35.888V35.696L27.662 35.568H27.598L27.534 35.76ZM26.318 20.976L26.574 21.168L26.766 21.04L26.702 20.976L26.894 20.848L26.83 20.784L26.766 20.592H26.446L26.382 20.848L26.318 20.976ZM26.318 22.256H26.446L26.51 22.384L26.766 22.32L26.702 22.192L26.574 22.064H26.446L26.318 22L26.19 22.064L26.318 22.256ZM26.638 28.144L26.51 28.208L26.446 28.272L26.382 28.4L26.446 28.528H26.638V28.144ZM26.702 35.888L26.766 35.824L26.83 35.44L26.638 35.376L26.382 35.312H26.19V35.44L26.382 35.632V35.888L26.574 35.824L26.638 35.888H26.702ZM27.15 36.784L27.022 36.72L26.894 36.784L26.702 37.04L26.766 37.168L27.022 37.232L27.15 37.04L27.214 36.912L27.15 36.784ZM27.214 3.952L27.406 3.824V3.888L27.47 3.696H27.406L27.278 3.504L27.15 3.632L27.086 3.76L27.214 3.952ZM27.726 36.4L27.662 36.336V36.272L27.406 36.4L27.342 36.336V36.592L27.598 36.656L27.79 36.592L27.918 36.528L27.726 36.4ZM28.302 32.24L28.046 32.304L27.79 32.432V32.56L27.854 32.624L28.11 32.752L28.302 32.56V32.24ZM28.622 10.48H28.686L28.75 10.352V10.224L28.686 10.16V10.288L28.494 10.416L28.43 10.608L28.622 10.48ZM28.75 20.336H28.558V20.4L28.494 20.592L28.75 20.656V20.336ZM31.118 28.912L30.734 28.976L30.798 29.296L30.862 29.36L31.118 29.296L30.99 29.168L31.182 29.296L31.118 28.976V28.912ZM31.63 31.408L31.438 31.472H31.374L31.31 31.6V31.664L31.566 31.792V31.728L31.63 31.408ZM34.19 25.456L34.254 24.688L34.126 24.176L34.254 23.472L34.19 22.768L34.126 22.256L34.19 21.552L34.126 20.848L34.19 20.272V19.568L34.254 19.056L34.19 18.48L34.254 17.84L34.19 17.072V16.56L34.126 15.856L34.254 15.28V14.512L34.126 13.936V13.296L34.254 12.784V12.08L34.126 11.376V10.096L34.254 9.456L34.126 8.944L33.998 7.536L33.614 7.088L32.462 6.896L32.014 6.96L31.95 6.832H31.822V7.024H30.99L30.03 6.96L29.518 7.024L29.454 7.152V7.28L29.198 7.664L29.07 8.88L29.134 9.456L29.07 10.16L29.006 10.8L29.07 11.312L29.006 12.016L29.07 12.656V13.232L29.134 13.872L29.006 14.448L29.134 15.216L29.006 15.792V16.304L28.942 16.368V16.56L29.006 16.496L29.07 17.328L29.006 17.968L29.07 18.48V19.12L29.134 19.888L29.006 20.464L29.07 21.104V21.744L29.006 22.32V24.944L29.07 25.52L29.006 26.16V26.928L29.198 28.272L29.582 28.72L30.926 28.784L31.694 28.848L32.27 28.72L33.486 28.656L33.934 28.144L34.19 26.928L34.126 26.224L34.19 25.584L34.254 25.648V25.392L34.19 25.456ZM34.382 6.448L34.19 6.32L34.062 6.512V6.64L34.126 6.768H34.19L34.254 6.64L34.382 6.448ZM34.446 26.864V26.928H34.254V26.992L34.382 27.056L34.574 27.12L34.446 26.864ZM34.638 12.528L34.574 12.464L34.51 12.592L34.446 12.656L34.638 12.592L34.702 12.464L34.638 12.528ZM35.022 42.16L34.958 42.096L35.022 42.032L34.766 41.84L34.638 41.968V42.288L34.83 42.416H34.958L35.022 42.16ZM35.214 25.456V25.328L35.15 25.392L35.022 25.584L35.086 25.648L35.278 25.712V25.648L35.214 25.456ZM35.214 21.68L34.958 21.808L35.022 22H35.086V22.128L35.278 22.192L35.406 21.936L35.214 21.68ZM38.798 13.616L38.99 13.552L39.054 13.616L38.926 13.488H38.862L38.798 13.616ZM38.158 7.472L38.286 7.408L38.35 7.28H38.286L38.158 7.472ZM37.326 13.552L37.454 13.68H37.646L37.518 13.616H37.71L37.454 13.488L37.326 13.552ZM36.942 3.44L37.134 3.376V3.312L37.07 3.056L36.942 3.12V3.44ZM37.07 30.512L37.198 30.576L37.134 30.448L37.006 30.32L36.75 30.512L36.686 30.768L36.814 30.704L36.878 30.768H37.134V30.64L37.07 30.512ZM36.814 14.384V14.448L36.942 14.32L36.686 14.256L36.814 14.384ZM35.662 7.984V7.856L35.726 7.728L35.534 7.792L35.662 7.92V7.984ZM35.726 44.976V45.104L35.662 44.976L35.598 45.104L35.662 45.232L35.726 45.168V44.976ZM36.046 44.464V44.336H35.854V44.528L35.982 44.592V44.528L36.046 44.464ZM36.302 3.696L36.494 3.568L36.43 3.248L36.238 3.312L36.11 3.376L36.302 3.696ZM36.558 14.32L36.494 14.192L36.558 14.128L36.366 14.064L36.238 14.256L36.174 14.384L36.302 14.448L36.238 14.512L36.43 14.576L36.366 14.512H36.558V14.32ZM36.622 17.328L36.686 17.52L36.622 17.392V17.264L36.558 17.2L36.494 17.328H36.622ZM36.686 36.912L36.75 36.848L36.686 36.784L36.814 36.72L36.878 36.592H36.558V36.912H36.686ZM37.134 37.488L37.262 37.36L37.198 37.232L36.942 36.976L36.75 36.912L36.622 37.168H36.558V37.296L36.622 37.552H36.878L37.134 37.488ZM37.262 37.936L37.07 37.808L37.134 37.936L37.006 38.192L36.942 38.256L37.134 38.384L37.262 38.192V37.936ZM37.454 17.456H37.39L37.262 17.584V17.776L37.326 17.84L37.39 17.712L37.326 17.648L37.454 17.584V17.456ZM37.71 15.856L37.518 15.92V16.048L37.582 16.112L37.71 16.176L37.902 15.984L37.71 15.856ZM38.158 21.296L38.03 21.36V21.552L37.966 21.68L38.094 21.936L38.286 21.744L38.35 21.872L38.414 21.616V21.424L38.158 21.296ZM38.222 19.44V19.568L38.35 19.632L38.286 19.696V19.504L38.222 19.44ZM39.054 20.784L39.118 20.528L38.862 20.208L38.734 20.016L38.478 20.08L38.414 20.272V20.144H38.478V20.336L38.414 20.528L38.606 20.656L38.734 20.848L39.054 20.784ZM39.31 31.088L39.374 31.152L39.438 31.024L39.182 30.768V30.832L39.054 31.024H39.118L39.31 31.088ZM39.694 44.016L39.566 43.952H39.246L39.374 44.272L39.502 44.144L39.822 44.08L39.758 44.016H39.694Z" fill="#F5F1D4"/>
<path d="M61.764 9.008L61.636 9.648L61.764 10.416L61.636 10.992L61.7 11.696L61.636 12.208L61.7 12.976V13.488L61.636 14.192L61.764 14.896L61.7 15.472L61.764 16.112L61.636 16.688V17.328L61.764 17.904L61.7 18.672L61.764 19.248L61.636 19.888V21.872L61.7 22.512L61.764 23.024V23.664L61.7 24.304L61.764 24.944L61.636 25.52V26.224L61.764 26.928L61.7 27.44L61.636 28.08V30.128L61.7 30.64V31.408L61.636 31.92V32.624L61.764 33.904L61.7 34.416V35.696L61.764 36.464L61.636 37.04L61.764 37.744L61.7 38.384L61.764 39.024L61.572 40.24L61.508 40.944L61.444 41.584L61.124 42.16L60.996 42.608L60.612 43.312L60.292 43.76L59.396 44.656L58.756 45.104L58.308 45.296L57.028 45.936L56.388 46H55.876L55.172 45.936L55.108 45.872H54.98L54.788 45.936L54.212 46.192L53.636 46.064H52.996L52.356 46.192L51.716 46.064H51.012L50.82 45.872L50.756 45.936L50.628 46L49.86 46.128H49.412L48.644 46.192L48.196 46.128H47.492L46.98 46.064L45.636 46L45.124 45.488L45.06 44.144V42.928L44.996 42.224L45.06 41.648L44.996 41.008L45.06 40.304V39.728L44.996 38.96L45.06 38.384L45.124 37.744L45.06 37.168L44.996 36.464L45.06 35.824V35.12L45.124 34.544L45.06 33.904V33.328L44.996 32.688L45.06 31.984V31.216L44.996 30.576L45.124 30L45.06 29.424L44.996 28.72L45.124 28.08L45.06 27.44V26.864L45.124 26.224L44.996 25.584V24.944L45.124 24.176L44.996 23.536L45.124 22.96L45.06 22.384L45.124 21.68V19.696H45.38L45.572 19.76V19.632L45.38 19.248L45.124 19.44H45.188L45.252 19.312V19.184L45.188 19.248L45.38 19.184H45.508L45.38 19.376H45.572L45.764 19.248L45.7 19.312V19.376L45.828 19.568V19.44L45.892 19.376L45.956 19.184H45.828L45.7 19.056V18.736L45.572 18.8L45.316 18.672L45.252 18.8V18.992L45.188 18.928L44.996 18.288L45.124 17.648V16.368L44.996 15.664V15.024L45.06 14.512L45.124 13.808L45.06 13.168L44.996 12.592L45.124 11.888V11.184L44.996 9.904H45.124L44.996 9.776L45.06 9.2L45.124 8.56L45.06 7.856V7.216L44.996 6.448V4.528L45.06 3.888L45.124 3.312V1.84L45.7 1.456L46.916 1.328L47.62 1.2L48.196 1.264L48.9 1.328L49.54 1.392L49.668 1.264H50.948L51.396 1.2L52.036 1.328H52.74L53.38 1.264L53.828 1.328L54.468 1.2L55.556 1.328L56.068 1.456L56.132 1.328H56.388L56.452 1.456L56.58 1.648L56.644 1.52L57.412 1.648L57.924 1.84L58.564 2.096L59.012 2.352L59.588 2.8L59.908 3.248L60.42 3.76L60.676 4.272L60.932 4.72L61.316 5.296L61.38 5.936L61.636 6.512L61.572 7.152L61.636 8.432L61.764 9.008ZM60.868 18.416L60.676 18.544L60.868 18.928L61.124 18.8L61.188 18.736V18.608L61.252 18.416L61.188 18.48L60.868 18.416ZM60.484 19.248V19.312H60.548V19.056L60.484 19.248ZM60.548 11.76H60.42L60.292 11.824H60.228V11.888H60.292L60.548 11.952H60.484L60.548 11.76ZM60.74 16.944L60.676 16.752L60.612 16.816H60.676L60.74 16.944ZM60.804 10.288L60.932 10.352V10.16L60.676 10.224L60.74 10.416L60.804 10.288ZM60.74 19.888L60.932 19.952V19.696L60.74 19.76V19.888ZM60.612 6L60.804 6.064H60.868L60.932 5.872L60.804 5.68H60.676L60.612 6ZM60.42 8.048L60.484 8.24H60.612L60.804 8.048L60.612 8.112V7.984L60.42 8.048ZM60.548 7.536L60.42 7.408H60.292L60.42 7.6L60.548 7.536ZM60.292 15.024L60.42 14.832L60.164 14.896L60.292 15.024ZM60.164 5.232V5.104L60.036 5.232H59.972H60.164ZM59.844 22.384L59.972 22.32L60.164 22.256L60.1 22.128L59.908 22.192L59.844 22.384ZM59.844 18.032V17.84L59.716 17.776L59.652 17.904L59.716 18.096L59.908 18.032H59.844ZM60.036 28.592H59.972L60.228 28.528L60.1 28.4L60.036 28.464V28.592ZM59.844 16.816L60.164 16.88V16.624L59.972 16.56L59.844 16.688V16.816ZM59.14 19.632L59.204 19.76H59.396L59.332 19.696L59.14 19.632ZM57.86 8.816L58.052 8.752V8.624L57.988 8.688L57.86 8.752V8.816ZM57.732 7.792V7.664L57.604 7.408L57.668 7.472L57.54 7.6L57.732 7.792ZM57.476 13.104H57.668L57.732 13.04L57.668 12.976L57.604 12.784V12.912H57.476V13.104ZM57.284 18.928H57.476L57.412 18.8H57.348L57.156 18.864H57.284V18.928ZM57.284 13.168L57.348 13.04L57.156 12.976V13.104L57.284 13.168ZM57.412 20.464H57.604V20.336L57.54 20.272L57.604 20.208H57.476L57.412 20.464ZM57.732 24.944L57.604 24.88V24.752L57.476 24.944H57.732ZM57.348 15.024H57.604V14.96L57.54 14.896L57.412 14.832L57.348 15.024ZM57.22 11.12L57.348 11.184L57.412 11.12L57.22 10.992L57.284 10.928L57.156 11.056L57.028 11.12H57.22ZM56.836 12.784L56.964 12.912V12.848L57.092 12.976V12.72H57.22V12.592L57.284 12.464L57.156 12.4L56.772 12.528L56.836 12.592V12.784ZM56.516 25.712V25.968L56.836 26.096V25.904L56.708 25.52L56.516 25.712ZM56.836 18.864L56.772 18.608V18.48L56.708 18.608L56.836 18.864ZM56.58 13.488L56.772 13.296V13.104L56.644 13.168L56.452 13.424L56.58 13.488ZM56.26 6.768H56.132L56.196 6.832V6.768L56.324 6.704L56.26 6.768ZM56.196 12.912H56.004L56.132 13.04H56.388L56.196 12.848V12.912ZM56.004 4.4L56.196 4.464L56.324 4.4H56.196L56.26 4.272L56.068 4.336L56.004 4.4ZM55.428 4.016H55.556L55.812 3.952L55.684 3.76H55.364L55.428 4.016ZM54.852 5.872L54.916 5.936V5.744L54.852 5.616L54.788 5.68L54.852 5.872ZM53.508 5.744L53.444 5.808L53.572 5.744H53.7L53.764 5.872L53.828 5.744L53.764 5.68L53.7 5.488L53.572 5.616L53.508 5.744ZM53.316 3.184H53.508L53.636 2.928L53.38 2.992L53.444 3.056L53.316 3.184ZM53.124 3.184H53.252V2.864L53.188 2.8L52.996 2.864L53.124 2.992V3.184ZM53.188 3.376L53.316 3.248L53.188 3.184L53.124 3.248L53.06 3.44L53.188 3.376ZM53.06 7.024L53.124 6.896L52.932 6.832L52.868 6.896L53.06 7.024ZM52.1 5.296L52.228 5.232L52.42 5.296L52.484 5.04V4.784L52.42 4.528H52.164V4.592L52.1 4.72L52.164 4.912L52.1 5.04V5.296ZM51.78 5.744H51.972V5.936H52.228L52.164 5.808L52.292 5.68L52.1 5.552L52.036 5.36L51.972 5.488L51.908 5.552H51.844L51.78 5.744ZM51.332 6.256L51.46 6.32L51.268 6.192L51.14 6.32L51.332 6.256ZM50.948 6.896L51.268 6.96V6.832L51.332 6.64L51.076 6.512H51.14V6.576L51.012 6.64H50.884L51.012 6.768L50.948 6.896ZM50.692 14.512L50.628 14.64L50.756 14.512L50.692 14.384L50.564 14.448L50.692 14.512ZM50.436 21.872H50.628L50.436 21.744L50.308 21.808L50.436 21.872ZM50.18 19.696L49.924 19.76L49.988 19.696V19.888L50.116 20.016V20.144L50.244 20.08V19.952L50.372 19.888H50.244L50.18 19.696ZM49.988 20.4V20.208L49.796 20.336L49.924 20.4V20.528L50.116 20.4H49.988ZM49.988 9.2L50.18 9.072L50.244 9.136L50.052 8.944V9.072L49.988 9.2ZM49.924 4.72L50.052 4.656H50.18V4.592L50.244 4.464L50.116 4.272L49.988 4.336L49.86 4.528L49.924 4.72ZM48.132 2.096L48.196 1.968L48.26 1.776L48.132 1.84H48.068L48.132 2.032V2.096ZM47.812 17.008H48.004L48.068 16.944L48.26 16.688H48.132L48.004 16.624L47.812 16.56L47.684 16.816L47.812 17.008ZM48.004 35.632L48.132 35.504H48.196L48.26 35.248L48.068 35.312V35.44L48.004 35.632ZM47.812 30.384H47.492L47.236 30.32L47.3 30.576L47.556 30.768L47.748 30.704V30.576L47.812 30.64L47.876 30.576L47.812 30.384ZM47.428 14.448L47.62 14.576V14.384L47.428 14.448ZM46.532 11.12L46.852 11.056L46.916 11.184H47.044L47.172 11.12L47.108 10.992L47.044 10.736H46.852L46.788 10.864H46.66L46.532 10.928V11.12ZM46.916 16.368H47.044L47.108 16.112L46.916 16.048V16.368ZM47.044 11.76L47.236 11.824V11.632H47.044L46.98 11.76H47.044ZM47.3 9.328L47.172 9.2L47.108 9.328H47.3ZM47.3 9.648H47.492L47.364 9.52L47.172 9.584L47.236 9.648L47.3 9.776V9.648ZM47.3 15.536L47.492 15.6L47.556 15.472L47.428 15.536L47.492 15.408L47.3 15.472L47.364 15.536H47.3ZM47.172 6.896L47.428 6.768L47.62 6.896V6.64H47.492L47.556 6.512H47.364L47.236 6.576L47.172 6.896ZM46.916 7.024L47.108 7.216V7.088L47.044 6.96H46.916V7.024ZM46.788 1.84L46.852 1.776V1.52H46.788L46.724 1.712L46.788 1.84ZM45.892 15.408H46.148V15.28L46.084 15.152L46.148 15.024L45.828 15.088L45.892 15.408ZM45.38 15.856L45.572 15.792L45.508 15.664V15.728L45.38 15.856ZM45.636 17.392L45.7 17.328V17.136H45.636L45.508 17.072V17.2L45.252 17.264L45.636 17.392ZM45.7 17.648L45.572 17.584H45.508L45.7 17.648ZM45.828 18.224V18.416L45.764 18.352L45.828 18.48V18.544L45.892 18.416L45.828 18.224ZM46.084 16.048L46.212 15.984L45.956 15.856V16.048H46.084ZM45.828 22.576L46.148 22.448H46.084L46.148 22.32L46.02 22.192V22.064L45.764 22.128L45.892 22.384L45.828 22.576ZM45.892 34.928L46.148 35.056L46.212 34.992L46.084 34.928H45.892ZM45.7 24.432H45.956L45.828 24.304L45.636 24.368H45.764L45.7 24.432ZM45.572 33.584V33.84H45.636L45.7 33.712L45.572 33.584ZM45.444 29.616L45.636 29.68V29.616L45.572 29.488L45.636 29.424H45.508L45.38 29.36L45.316 29.296V29.552L45.444 29.616ZM45.508 30.32L45.572 30.128H45.508L45.316 30L45.188 30.064L45.124 30.192L45.188 30.384L45.316 30.256L45.508 30.384V30.32ZM45.828 35.568H45.636L45.572 35.696V35.888H45.7L45.636 35.824H45.828V35.568ZM46.148 42.416L46.084 42.352H45.892L45.828 42.672H46.084V42.608L46.148 42.416ZM46.404 36.016H46.084L46.148 36.208L46.212 36.272L46.276 36.464L46.34 36.4V36.336L46.468 36.272L46.404 36.016ZM46.532 24.176L46.468 24.112L46.34 24.304L46.212 24.368L46.404 24.496V24.432L46.532 24.176ZM46.468 13.36H46.276L46.34 13.552H46.212H46.404L46.468 13.36ZM46.788 9.328L46.724 9.2L46.788 8.944L46.724 8.88L46.532 9.072H46.468L46.532 9.2L46.788 9.328ZM46.596 17.712L46.66 17.776L46.724 17.712H46.596ZM46.852 21.04V21.232L47.044 21.168L46.852 21.04ZM47.3 26.8L47.428 26.736V26.864H47.492V26.672L47.62 26.544L47.3 26.416L47.108 26.608L47.3 26.8ZM47.364 29.616V29.744L47.62 29.616L47.556 29.36L47.364 29.232L47.236 29.616H47.364ZM47.236 33.968V34.032L47.428 34.096L47.364 33.904H47.492L47.364 33.968H47.236ZM47.556 38.256L47.364 38.192L47.236 38.064L47.3 38.256L47.172 38.448L47.364 38.512L47.492 38.384L47.556 38.256ZM47.684 39.536L47.556 39.472L47.62 39.728V39.6L47.812 39.664L47.684 39.536ZM48.004 39.408H47.876V39.6L48.068 39.728L48.132 39.664L48.004 39.408ZM48.196 38.576H47.876L47.812 38.768L48.132 38.896L48.196 38.768V38.704H48.388L48.196 38.576ZM48.324 18.48H48.132L48.068 18.8L48.196 18.736L48.324 18.48ZM48.452 1.776L48.516 1.648L48.58 1.84L48.644 1.776H48.708L48.644 1.584V1.52L48.516 1.648L48.452 1.52L48.388 1.584L48.196 1.712L48.26 1.84H48.324L48.452 1.776ZM48.516 29.744L48.388 29.872V30.064L48.516 30.128L48.708 30.064L48.644 29.936L48.516 29.744ZM48.516 21.232L48.452 21.296L48.388 21.232V21.488L48.324 21.552H48.388L48.452 21.744H48.58L48.772 21.616L48.708 21.488H48.836L48.772 21.424L48.836 21.168L48.516 21.232ZM49.092 20.08L48.964 19.888H48.708L48.644 20.272H48.836L48.964 20.336L49.092 20.208V20.08ZM49.476 34.736L49.54 34.864H49.604L49.476 34.736ZM49.796 20.912H49.988L50.052 20.72H49.924L49.732 20.592L49.668 20.72L49.796 20.912ZM50.116 26.736L49.924 26.608L49.988 26.544L49.796 26.608V26.672L49.86 26.928L49.924 26.992V26.864L49.988 26.736H50.116ZM50.244 21.616L50.116 21.552L50.18 21.424L49.988 21.488L50.052 21.616V21.552L49.988 21.744L50.052 21.68H50.244V21.616ZM51.204 45.232L51.076 45.104L51.012 44.976L50.884 45.168V45.424H51.14H51.076V45.36L51.204 45.232ZM51.012 44.016V43.888L51.076 43.952L51.14 43.824H51.012L50.884 43.952L51.012 44.016ZM55.172 42.608L55.3 42.672L55.108 42.544L54.98 42.416V42.608H55.172ZM55.3 45.488L55.108 45.424V45.808L55.236 45.68L55.3 45.744L55.364 45.552L55.3 45.488ZM56.004 15.856V15.728H55.876L55.94 15.088L55.876 14.384L55.94 13.552L56.004 12.976L55.876 12.208L55.94 11.568L56.004 11.504L56.132 11.568L56.068 11.376L56.004 11.248L55.94 11.184V10.992L56.004 11.056L56.132 10.864H56.004L55.94 10.224V9.584L56.004 8.88L55.684 7.728L55.3 7.152L53.956 6.96L53.316 7.088H52.804L51.396 7.28L51.012 7.664L50.756 9.008L50.82 9.584L50.756 10.16L50.884 10.928V12.784L50.82 13.488L50.756 14.064L50.82 14.704V16.688L50.756 17.2L50.884 17.968L50.82 18.544V19.184L50.756 19.888L50.82 20.464V21.168L50.884 21.808V22.384L50.756 22.96L50.5 23.088V22.896L50.308 23.152L50.436 23.344L50.628 23.408L50.692 23.344L50.82 24.048V24.56L50.756 25.264L50.82 25.968L50.756 26.48L50.82 27.12V28.528L50.756 28.976L50.884 29.68L50.82 30.384L50.884 31.024L50.756 31.6L50.82 32.176V34.096L50.564 34.864L50.372 34.928V34.992L50.436 35.12V35.248L50.564 35.12L50.82 35.184L50.756 35.76L50.82 36.464V37.04L50.756 37.744V38.384L51.012 39.728L51.46 40.112L52.676 40.304L53.316 40.368L54.084 40.24H55.236L55.684 39.728L55.876 38.384L55.94 37.744V36.528L55.876 35.888L55.94 35.184L55.876 34.608L56.004 33.84V33.264L55.876 32.624V31.344L56.004 30.576L55.876 29.936V29.36L56.004 28.656V28.08L55.94 27.44L55.876 26.864V24.816L56.004 24.24L55.876 23.6V22.896L56.004 22.192L55.94 21.68V21.04L56.004 20.4L55.94 19.696L56.004 19.12L55.876 18.48L56.004 17.072L55.94 16.56V15.856H56.004ZM50.692 26.096L50.564 25.968L50.5 26.096V26.16L50.564 26.224H50.756L50.692 26.096ZM56.324 31.344L56.452 31.536L56.58 31.344L56.452 31.152L56.324 31.088L56.068 31.024L55.94 31.344H56.324ZM56.26 33.136L56.196 33.328H56.26V33.136ZM56.58 45.808V45.872L56.772 45.744V45.68L56.58 45.808ZM56.836 44.016L56.9 43.952L56.708 43.76L56.644 43.824L56.516 43.888H56.452L56.516 44.144L56.58 44.336V44.208L56.644 44.336L56.836 44.272V44.336L56.964 44.144L56.836 44.016ZM57.028 37.872L56.836 37.68L56.644 37.872L56.836 38.192L57.028 38V37.872ZM57.22 26.992L57.54 26.608H57.348L57.156 26.48L56.964 26.736L57.22 26.992ZM57.54 34.992L57.412 34.864L57.22 34.928V35.12L57.348 35.248L57.54 35.376L57.604 35.248L57.54 34.992ZM57.668 42.8L57.54 43.056L57.604 43.12H57.796L57.668 42.928V42.8ZM57.796 14.256H57.86L57.796 14.448V14.512L57.86 14.576L57.988 14.384L57.796 14.256ZM58.308 12.976H58.116V13.104H58.18V13.232L58.244 13.296H58.308L58.436 13.104L58.308 12.976ZM58.82 12.464L58.692 12.592V12.656H58.628L58.82 12.72L58.756 12.656L58.82 12.464ZM58.948 11.376H58.884L58.948 11.12H58.884L58.756 11.312L58.692 11.44H58.948V11.376ZM59.14 17.392H59.204V17.264L59.076 17.2L59.012 17.328L59.076 17.456L59.14 17.392ZM59.332 20.464L59.204 20.336L58.948 20.464L59.076 20.528L59.012 20.464H59.332ZM59.332 37.552L59.14 37.68L59.204 37.808L59.332 37.68V37.552ZM59.78 17.648V17.392H59.332L59.396 17.584L59.524 17.776L59.78 17.648ZM59.652 34.288L59.524 34.224L59.588 34.416L59.652 34.352V34.288ZM59.972 33.84L60.164 33.712L59.908 33.52H59.78V33.584L59.844 33.84H59.972ZM60.164 35.632H60.1L60.036 35.76H60.164V35.632ZM60.292 32.88V32.624L60.1 32.688H60.036L59.972 32.624L60.036 32.88V32.816H60.228L60.292 32.88ZM60.548 41.52L60.356 41.456V41.52L60.228 41.648L60.42 41.584L60.548 41.648V41.52ZM60.676 38.512L60.612 38.64L60.548 38.896L60.74 38.832L60.804 38.96L60.868 38.832L60.932 38.768L60.676 38.512ZM60.996 37.36L60.868 37.232L60.612 37.104L60.548 37.424L60.484 37.552L60.548 37.488L60.676 37.68L60.74 37.744L60.868 37.552L60.996 37.424V37.36ZM60.932 26.224L60.804 26.416H60.996L60.932 26.224ZM61.252 20.4L61.124 20.336H61.06L61.124 20.528L61.252 20.4ZM61.252 31.344L61.188 31.216L61.06 31.344L61.124 31.536H61.188L61.316 31.408L61.252 31.344ZM61.444 30.64H61.316V30.832L61.572 30.896L61.444 30.64Z" fill="#F5F1D4"/>
<path d="M73.85 30.576L73.914 31.216L73.85 31.856V33.008L73.914 33.84V34.416L73.85 35.056V35.632L73.786 36.336L73.914 36.976L73.786 37.744L73.85 38.256L73.914 38.96L73.85 39.536L73.786 40.24L73.85 40.88V42.928L73.786 43.44V44.208L73.722 45.424L73.146 45.936L71.994 46.064L71.226 46.192L70.65 46.064H70.074L68.73 45.872L68.154 45.424V44.08V44.144L68.346 44.208L68.41 44.016L68.282 43.888L68.346 43.76V43.632L68.282 43.568L68.154 43.504L68.026 43.632V43.696L68.09 43.888V43.76L68.154 43.248L68.09 42.544L68.154 41.84V39.344L68.026 38.704L68.154 37.424V36.72L68.026 36.08L68.154 35.504L68.282 35.568L68.346 35.376L68.09 35.312L68.026 34.672L68.154 33.904V32.048L68.026 31.472V30.704L68.09 30.064L68.154 29.552L68.09 28.912L68.154 28.144L68.026 27.632V25.584L68.09 25.072L68.154 24.432L68.026 23.664V23.088L68.09 22.448L68.026 21.68V21.104L68.09 20.464V19.12L68.154 18.544L68.09 17.968L68.026 17.264V15.92L68.09 15.28V14.64L68.154 14.064V13.488L68.026 12.784L68.09 12.656L68.218 12.528V12.4L68.026 11.696V11.056L68.154 10.416L68.026 9.776L68.09 9.264L68.154 8.56L68.026 7.92L68.154 7.28L68.09 6.576V6L68.026 5.296L68.154 4.784V4.08L68.09 3.44L68.154 2.864L68.026 2.736L68.154 2.672L68.218 1.968L68.666 1.52H68.858L69.05 1.456H69.114L69.37 1.52L69.306 1.328L69.434 1.392V1.264L69.626 1.328L69.818 1.264H71.162L71.93 1.2L73.146 1.392L73.722 1.904L73.914 3.248L73.85 3.824L73.914 4.4L73.786 5.04L73.914 5.744V6.448L73.786 6.96V7.6L73.914 8.24L73.786 8.88V9.456L73.914 10.096L73.786 10.864V11.312L73.914 11.952L73.85 12.592V13.936L73.786 14.576V15.152L73.914 15.856L73.786 16.496L73.85 17.008V18.416L73.914 18.928L73.85 19.568L73.786 20.272L73.85 20.848L73.786 21.424L73.85 22.064V24.048L73.722 24.688H73.85L73.914 25.456L73.85 25.968V27.824L73.786 28.464L73.85 29.232L73.786 29.744L73.85 29.808V30.576ZM73.402 11.952V12.08H73.53L73.722 11.952L73.658 12.016L73.722 11.824H73.658L73.53 11.76L73.338 11.888L73.402 11.952ZM73.53 25.84L73.594 26.032L73.466 26.096L73.722 26.032L73.658 25.904L73.53 25.84ZM72.762 1.84L72.698 2.032L72.762 2.096L72.89 2.032L72.954 1.904L72.762 1.84ZM72.698 2.16V2.416L72.826 2.352H72.89L72.954 2.224L72.698 2.16ZM72.57 1.648L72.762 1.584L72.826 1.648L72.954 1.52H72.762L72.57 1.648ZM72.57 15.792L72.762 15.856L72.698 15.92L72.826 15.792L72.762 15.6L72.57 15.664V15.792ZM72.25 13.872L72.378 13.744L72.25 14H72.378L72.57 13.872L72.442 13.68L72.25 13.872ZM72.122 22.96L72.25 22.832V22.768L72.314 22.832H72.122L71.994 22.896L72.122 22.96ZM71.738 2.352H71.866L71.93 2.16H71.802V2.224L71.738 2.352ZM71.61 16.816L71.802 16.688L71.674 16.496H71.482L71.61 16.688V16.816ZM71.162 18.736L71.226 18.864H71.29L71.354 18.8L71.162 18.608V18.736ZM70.97 9.84L71.098 9.904L71.162 9.776L70.97 9.84ZM70.906 16.048L71.034 16.112L71.098 16.048L71.034 15.984L70.97 15.856L71.034 16.048L70.842 15.984L70.906 16.048ZM70.842 32.304L71.034 32.176V32.048L70.906 32.112L70.842 32.304ZM70.458 6.192H70.394V6.448L70.522 6.32V6.256L70.458 6.192ZM70.33 6L70.394 6.064L70.522 6.128V5.936L70.266 6H70.33ZM70.394 15.408L70.33 15.344H70.458V15.28L70.394 15.216H70.202L70.394 15.408ZM70.138 17.968L70.202 18.096L70.138 18.16L70.202 18.288L70.33 18.224L70.394 17.968L70.458 17.776H70.33L70.266 17.84L70.33 17.712L70.394 17.84L70.458 17.584H70.33L70.202 17.52L70.266 17.712H70.202L70.33 17.904L70.266 17.84L70.138 17.968ZM70.138 18.352V18.48L70.33 18.544L70.394 18.416L70.138 18.352ZM70.138 35.76H70.266L70.394 35.696L70.458 35.632L70.522 35.504L70.394 35.376L70.266 35.504L70.138 35.76ZM69.818 12.016L69.754 12.208H69.882L70.074 12.272L69.946 12.016H69.818ZM69.434 9.52L69.37 9.776L69.69 9.904L69.818 9.648L69.434 9.52ZM69.562 4.656L69.626 4.592V4.464L69.37 4.592L69.562 4.656ZM69.306 18.928L69.178 18.992L69.114 19.056L69.242 19.184L69.37 19.248V19.184H69.498V18.992L69.434 19.056L69.306 18.928ZM69.434 26.928L69.242 27.12V27.248L69.498 27.12L69.434 27.184V26.928ZM69.498 29.168L69.562 29.04L69.69 28.912L69.498 28.976V29.168ZM69.242 7.728L69.306 7.6L69.05 7.472V7.792L69.242 7.728ZM69.05 6.64V6.768H69.242V6.512L69.05 6.64ZM68.922 2.352L69.05 2.416L69.114 2.352L68.858 2.224L68.922 2.352ZM68.602 22.768L68.474 22.896L68.41 23.152L68.73 23.088V23.216L68.922 23.024L68.858 22.896L68.602 22.768ZM68.538 4.016L68.602 4.144L68.794 4.08L68.73 3.888L68.474 3.824L68.602 3.888L68.538 4.016ZM68.218 2.352L68.346 2.416L68.218 2.288L68.282 2.16L68.218 2.224L68.154 2.416L68.218 2.352ZM68.154 2.928L68.282 3.12L68.41 3.184L68.346 3.056H68.474L68.346 2.8H68.282L68.09 2.992L68.154 2.928ZM68.282 3.76L68.218 3.632L68.282 3.504H68.09V3.696L68.154 3.76H68.282ZM68.41 4.336V4.208H68.154L68.218 4.336V4.272L68.41 4.336ZM68.602 5.744H68.538L68.474 5.552L68.282 5.68V5.936H68.41L68.602 5.744ZM68.666 27.76L68.602 27.632L68.474 27.76L68.602 27.824L68.666 27.76ZM68.858 27.312L68.922 27.248V27.12H68.794L68.666 27.184L68.73 27.248V27.376L68.858 27.312ZM68.922 28.72L68.858 28.912L69.05 29.04V28.784L68.922 28.72ZM68.922 11.504L69.114 11.632L69.178 11.504H68.922ZM69.37 44.912L69.306 44.784L69.114 44.912L69.05 45.168L69.242 45.232H69.37V44.912ZM69.306 28.4L69.178 28.464H69.114V28.656L69.178 28.528L69.242 28.656L69.37 28.528L69.306 28.4ZM69.69 34.16V34.096L69.498 34.16L69.562 34.032L69.37 34.224V34.352L69.626 34.224V34.352L69.69 34.16ZM69.882 21.744L69.69 21.68L69.626 21.616L69.498 21.744L69.37 22L69.626 22.064H69.754L69.69 21.872L69.882 21.744ZM70.074 16.496L70.01 16.56L69.754 16.432L69.818 16.56L69.754 16.688L69.882 16.752L70.01 16.688L70.074 16.496ZM70.458 42.416H70.266L70.138 42.544H70.01L70.074 42.8L70.138 42.864L70.33 42.736L70.65 42.608L70.458 42.416ZM70.65 37.424L70.394 37.36L70.33 37.552H70.138V37.68L70.202 37.744L70.33 37.808H70.266L70.33 37.744L70.522 37.616L70.65 37.424ZM70.458 7.408V7.6L70.522 7.664L70.714 7.6V7.536L70.458 7.408ZM71.034 44.272H70.714V44.464H70.97V44.208L71.034 44.272ZM71.29 41.392L71.098 41.328H70.97L71.034 41.264L71.098 41.392L71.162 41.456L71.29 41.392ZM71.29 32.176H71.098V32.432H71.226L71.29 32.496L71.226 32.304L71.29 32.176ZM71.418 26.544L71.482 26.352H71.354L71.226 26.416L71.162 26.672L71.29 26.608L71.482 26.672L71.418 26.544ZM71.738 22.512L71.61 22.448L71.418 22.384L71.482 22.576L71.418 22.64L71.61 22.768L71.674 22.704V22.576L71.738 22.512ZM71.866 18.928L71.93 18.8H72.058L71.802 18.416L71.674 18.48V18.544L71.61 18.48V18.352V18.608L71.482 18.8L71.866 18.928ZM71.994 39.792H71.93L71.866 39.92L71.802 39.984H71.93L71.994 39.792ZM72.186 39.408L72.058 39.6V39.728H72.122V39.6L72.186 39.408ZM72.186 27.44H72.314L72.378 27.376V27.312H72.25L72.122 27.376L72.186 27.44ZM72.378 40.048L72.25 40.24L72.378 40.368L72.442 40.304L72.57 40.24L72.378 40.048ZM72.634 27.312L72.506 27.376L72.378 27.696L72.698 27.76V27.632L72.826 27.376L72.634 27.312ZM72.826 18.352V18.288H72.698L72.762 18.352L72.634 18.416H72.89L72.954 18.544L72.826 18.352ZM72.89 13.424L72.826 13.488H72.698L72.762 13.744L72.954 13.68L72.89 13.424ZM73.018 30.128L72.954 30.256H73.082V30.384L73.21 30.32L73.018 30.128ZM73.85 34.608H73.658L73.53 34.48L73.466 34.544V34.416L73.338 34.48L73.21 34.736L73.274 34.928H73.402V35.056H73.722L73.786 34.864L73.85 34.8V34.608ZM73.786 32.048L73.722 31.984L73.658 32.112H73.594L73.722 32.24L73.786 32.048Z" fill="#F5F1D4"/>
<path d="M96.8235 43.44L96.8875 44.144L96.6955 45.552L96.1835 46L94.8395 46.128H94.3275L93.6875 46.064L92.9195 46.192H92.3435L91.7675 46.064H89.7195L89.1435 46.192L88.5035 46.064L87.7995 46.192L87.2235 46.128H86.5195L85.8795 46.192L85.2395 46.128H84.0235L83.3835 46.064L82.7435 46.128H82.1675L80.8235 45.872L80.3755 45.424L80.3115 44.272L80.2475 43.568V42.928L80.1835 42.352L80.3115 41.584L80.2475 41.072L80.3115 40.304V39.088L80.1835 38.512V36.016L80.3115 35.44L80.2475 34.672L80.1835 34.16L80.2475 33.456L80.1835 32.816L80.2475 32.112V30.832H80.3755L80.4395 30.64L80.3115 30.512L80.1835 30.448L80.2475 30V29.36L80.3115 28.656V27.952L80.1835 27.376V26.096L80.3115 25.456L80.1835 24.816V24.176L80.3115 23.472V22.256L80.1835 21.68L80.2475 20.976L80.1835 20.336V19.696L80.3115 19.056L80.2475 18.544V17.264L80.3115 16.56L80.1835 15.92V15.344L80.2475 14.64L80.1835 13.936L80.3115 13.424L80.2475 12.72V11.568L80.3115 10.8V8.304L80.1835 7.024V5.68L80.3115 5.168V3.12L80.3755 2.096L80.6315 1.52L81.3355 1.264L81.3995 1.392H81.6555L81.5915 1.328H82.4235L82.9995 1.2L83.5755 1.264H84.2795L85.0475 1.392L84.9195 1.264L85.1115 1.392L85.2395 1.328L85.3035 1.392L85.8155 1.328H86.9675L87.0315 1.392V1.456L87.1595 1.392H87.0955L87.6715 1.264L88.3115 1.328L88.8875 1.264H90.2315L90.1675 1.328H91.0635L91.5755 1.264H95.8635L96.3755 1.584L96.2475 1.712L96.4395 1.648H96.5035L96.6955 2.096L96.8875 3.12V3.76L96.7595 4.528V5.168L96.5675 6.448L96.1195 6.896L94.8395 7.088L94.1995 6.96H93.6235L92.9835 7.024H92.4075L91.8315 7.088L91.1915 7.024L91.0635 6.896L90.9355 6.96H90.2315L89.6555 7.024L89.0155 6.96L88.9515 6.832L88.8235 6.768L88.7595 6.704L88.6315 6.96L88.6955 7.024L88.8235 6.96L88.1835 7.024L88.0555 6.896H87.8635L87.7355 7.088L87.3515 6.96L86.2635 7.152L85.7515 7.728L85.6235 8.88L85.6875 9.52L85.6235 10.16V11.44L85.7515 12.08V13.232L85.6235 13.872L85.7515 14.576V15.728L85.6875 16.432V17.648L85.6235 18.352L85.6875 18.864L85.8795 20.144L86.3275 20.592L87.4795 20.784L88.0555 20.72H89.3355L89.8475 20.848L91.1915 20.72L91.7035 20.848L92.2795 20.72L92.9835 20.848L94.1995 20.912L94.7115 21.488L94.9675 22.704V23.28L94.8395 23.984L94.9675 24.688L94.7755 25.968L94.1355 26.416L93.0475 26.608H92.3435L91.7035 26.48H91.0635L90.3595 26.608H89.7195L89.1435 26.48L88.4395 26.416L88.3115 26.544V26.48L86.1995 26.736L85.7515 27.312V28.528L85.5595 28.976H85.3675V29.168L85.4315 29.232L85.3675 29.296L85.4955 29.36L85.5595 29.296L85.7515 29.936V31.152L85.6875 31.792V33.776L85.7515 34.544V35.12L85.6875 35.76L85.7515 36.464L85.6235 37.104L85.7515 37.808V39.6L86.2635 40.112L87.4795 40.24L88.1195 40.368L88.8235 40.56L89.0155 40.624H89.0795L89.1435 40.368L89.7835 40.24L90.4875 40.368L91.0635 40.24L91.7035 40.368L92.2795 40.304L92.9835 40.24L93.6235 40.368L94.1995 40.24L94.9035 40.304L96.2475 40.56L96.6955 40.944L96.8235 42.224V43.44ZM94.1355 23.024V22.96L94.0715 22.768L93.9435 22.96L94.1355 23.024ZM90.9995 21.36L91.1275 21.424L91.1915 21.488L91.4475 21.36L91.5115 21.104H91.0635L90.9355 21.168L90.9995 21.36ZM90.1035 25.776L90.2955 25.904V25.84L90.3595 26.032L90.5515 25.904V25.712L90.4875 25.584L90.4235 25.52L90.1035 25.392V25.776ZM86.6475 24.432L86.7115 24.56H86.8395L86.9035 24.368L86.8395 24.304L86.6475 24.368L86.5195 24.496L86.6475 24.432ZM94.4555 6.32L94.3275 6.192L94.2635 6.384V6.32V6.448L94.4555 6.512L94.5195 6.32H94.4555ZM94.6475 4.656V4.784L94.7755 4.912L95.0315 4.72L94.9035 4.656H94.6475ZM94.4555 2.544V2.8H94.6475L94.8395 2.544L94.7115 2.608L94.5195 2.416L94.4555 2.544ZM94.4555 1.84V1.904L94.3915 1.968L94.4555 2.096V1.84ZM92.7275 6L92.9835 5.872L92.9195 5.744V5.616L92.8555 5.744H92.7275V6ZM91.8955 3.248L92.1515 3.312L92.0235 3.184L91.8955 3.12L91.9595 3.376L91.8955 3.248ZM91.7035 2.16V2.032L91.5755 2.096H91.6395L91.7035 2.16ZM91.1915 5.744L91.4475 5.68L91.3195 5.616L91.3835 5.552L91.1915 5.488L91.3195 5.552L91.1915 5.424L91.0635 5.68L91.1915 5.744ZM90.0395 5.616H90.1035L90.1675 5.424L89.9115 5.296V5.488L90.0395 5.616ZM88.8235 5.424L88.8875 5.488V5.744L89.0155 5.488L88.8235 5.424ZM88.6315 2.096L88.6955 2.16L88.8875 2.224V2.032L88.8235 2.16L88.6315 2.096ZM88.2475 4.208L88.4395 4.144L88.3755 4.016L88.1195 3.888V4.08L88.2475 4.208ZM87.5435 6.832L87.6075 6.896V6.768L88.1195 6.704L88.7595 6.448L89.0795 6.384L89.6555 6.32L90.0395 6L90.1035 6.128L90.2315 5.872L90.1035 5.936L90.0395 5.872L89.7835 5.808L89.2075 6.128L88.9515 6L88.7595 6.192H88.3115L87.9915 6.384L87.8635 6.512L87.9275 6.448L87.6715 6.512L87.6075 6.448L87.4795 6.64L87.5435 6.832ZM86.0075 2.608L85.8155 2.864V2.928H85.8795L86.1355 2.992V2.864L86.0075 2.608ZM86.0075 1.84L86.0715 1.776V1.648L85.9435 1.584L85.8155 1.776L86.0075 1.84ZM85.6235 6.768L85.8795 6.64L85.9435 6.576H85.6875L85.6235 6.768ZM84.9835 38.32L85.1115 38.448L85.2395 38.384V38.32H84.9835ZM84.8555 22.512L84.9195 22.576L85.1115 22.512L85.0475 22.448H84.9835L84.8555 22.512ZM84.5995 9.008V9.2L84.7915 9.008L84.7275 8.944L84.8555 8.88L84.6635 9.008H84.5995ZM84.5355 17.392L84.4715 17.456L84.4075 17.712H84.4715L84.5995 17.968H84.8555L84.7915 17.584H84.6635L84.5355 17.52V17.392ZM84.6635 20.592L84.5995 20.528L84.5355 20.656L84.6635 20.72L84.7275 20.592H84.6635ZM84.0235 16.048L84.0875 16.176L83.9595 16.24L84.0875 16.304H84.2155L84.3435 16.24L84.4075 16.112L84.1515 15.856L84.0235 16.048ZM84.4715 16.368H84.5355L84.4075 16.24H84.3435L84.4715 16.368ZM84.2155 3.568H84.1515L84.0875 3.44L84.0235 3.568L84.0875 3.632L84.2155 3.568ZM84.4075 14.512V14.32L84.2795 14.256L83.9595 14.128L84.0875 14.192L83.8955 14.512H84.4075ZM83.8315 15.024L84.0235 14.896L84.1515 14.96L84.0235 14.768V14.832L83.9595 14.768L83.8315 15.024ZM83.8955 15.472H84.0235V15.344L83.8955 15.088L83.7035 15.152L83.8955 15.472ZM83.5115 29.296H83.7035L83.7675 29.36L83.5115 29.168V29.296ZM82.8075 14.704V14.768L82.9995 14.704H83.0635L83.1275 14.64L83.0635 14.384L82.7435 14.448L82.8075 14.704ZM82.1035 13.04L82.2955 13.232L82.3595 13.168L82.4235 13.04H82.1035ZM82.1675 29.872V29.744H82.1035L82.0395 29.872V30.128H82.1675L82.2315 30L82.2955 29.808L82.1675 29.872ZM81.8475 11.376L82.0395 11.44H82.1675L82.2955 11.248L82.1035 11.056L81.9115 11.12L81.7195 11.312L81.8475 11.376ZM81.8475 24.944H81.5915L81.5275 24.88L81.2075 24.816L81.2715 25.136L81.5275 25.2H81.8475L81.7195 25.136L81.7835 24.944H81.8475ZM81.5275 9.008H81.6555L81.7195 8.88L81.5275 8.752L81.4635 8.88L81.5275 9.008ZM81.3995 9.84V10.096H81.5915L81.5275 9.968L81.3995 9.84ZM81.2075 3.952V4.144H81.4635L81.3355 4.08L81.2715 3.952H81.2075ZM81.2075 6.32V6.128L81.0795 6.32H81.2075ZM80.9515 10.608L80.8875 10.8H81.0155L81.1435 10.736L80.9515 10.608ZM81.3355 3.696L81.2075 3.888L81.1435 3.952H81.2715V3.824L81.3355 3.696ZM81.0795 1.776L81.1435 1.648V1.584L80.9515 1.456L80.8875 1.584L81.0795 1.776ZM80.7595 5.424V5.36L80.5675 5.488L80.6315 5.616L80.8875 5.68L80.9515 5.552L81.0795 5.616V5.68L81.1435 5.552V5.36L80.9515 5.296L80.8875 5.232L80.7595 5.424ZM80.4395 18.864L80.5035 18.672H80.3755V18.864H80.2475L80.4395 18.992L80.5675 18.864H80.4395ZM80.5675 7.856H80.3115L80.3755 7.984H80.2475L80.4395 8.112L80.5675 7.856ZM80.7595 3.696V3.44L80.6315 3.504H80.5675L80.4395 3.632L80.5035 3.696H80.7595ZM80.6955 12.08H80.5035L80.5675 12.144L80.6955 12.336L80.8235 12.208L80.6955 12.08ZM80.9515 15.472L80.8235 15.536L80.8875 15.792L81.0795 15.664L80.9515 15.472ZM81.3995 21.296L81.4635 21.36L81.5275 21.232L81.6555 21.296L81.5275 21.168V20.912H81.3355L81.1435 20.976V21.104L81.3995 21.296ZM81.3355 24.112L81.4635 24.24L81.5275 24.048L81.6555 23.792H81.3995L81.2075 24.112H81.3355ZM81.2075 28.464H81.3355V28.592L81.4635 28.528L81.3995 28.272L81.3355 28.4L81.2075 28.464ZM81.5275 32.624L81.3995 32.56L81.3355 32.688L81.2075 32.816L81.2715 33.008H81.4635L81.7195 32.752L81.5275 32.624ZM81.7195 33.968H81.7835L81.5915 34.032V34.16H81.7195L81.8475 34.096L81.7195 33.968ZM82.1035 33.328H82.2315L82.2955 33.2L82.4235 33.136L82.2315 32.944L82.0395 33.072L81.9115 33.264L82.1035 33.328ZM82.0395 34.224L82.1675 34.096L82.1035 33.84L81.8475 33.968V34.16L82.0395 34.224ZM82.1675 42.736L82.0395 42.8L81.9755 43.12L82.2315 42.992L82.2955 43.12V42.992L82.4235 42.8L82.1675 42.736ZM82.5515 24.304L82.3595 24.432L82.5515 24.496L82.6155 24.368L82.5515 24.304ZM82.9355 15.728H82.6795L82.4875 15.664L82.3595 15.728L82.5515 15.92L82.4875 15.856L82.3595 15.984V16.048L82.5515 16.304L82.6155 16.176L82.8075 16.048H82.6795H82.7435L82.9355 15.92V15.728ZM83.1275 42.096L82.9355 42.16V42.416L82.9995 42.288H83.1275V42.096ZM83.9595 42.288H83.4475V42.544L83.3835 42.672L83.5115 42.736L83.8315 42.8L83.7675 42.672L83.8955 42.544L83.9595 42.288ZM84.0235 21.04L83.8955 20.976V21.104L83.7675 21.232L83.8955 21.488H84.0235V21.04ZM84.2155 45.616H84.3435V45.744V45.68L84.2155 45.616ZM84.6635 29.744L84.8555 29.616V29.68L84.7915 29.424V29.232L84.6635 29.36L84.4715 29.232V29.424L84.5995 29.488L84.6635 29.744ZM85.1755 40.688L84.9835 40.624L85.0475 40.496L85.1115 40.56L84.9195 40.368H84.7915L84.5355 40.624L84.5995 40.816L84.6635 40.88L84.9835 40.752H85.1755L85.0475 40.688H85.1755ZM85.1115 39.472H84.8555L84.9195 39.6L84.8555 39.664L85.1115 39.92V39.472ZM86.7115 41.84L86.8395 41.776L86.9675 41.84L86.9035 41.712L86.8395 41.648H86.6475L86.7115 41.84ZM86.1355 44.592L85.8795 44.784L86.0075 44.848L86.1355 44.592ZM86.7115 45.232V45.424L86.7755 45.36L86.9035 45.424L86.8395 45.168L86.7115 45.232ZM87.0955 43.824L87.0315 44.08L87.1595 43.952V44.016L87.0955 43.824ZM87.7355 42.544L87.6075 42.608L87.5435 42.544H87.4795L87.6075 42.416V42.288L87.4155 42.096H87.3515L87.1595 42.16H87.0315L87.1595 42.48H87.0955L87.2235 42.672H87.3515V42.608V42.736H87.6075L87.5435 42.864L87.8635 42.928L88.1195 42.864L87.9275 42.608L87.7355 42.544ZM88.3115 43.248L88.4395 43.376V43.504L88.3755 43.44L88.3115 43.248ZM89.8475 41.456L89.9115 41.392V41.264H90.0395V41.2H89.9115V41.264L89.7195 41.2L89.8475 41.456ZM89.7195 45.36H89.5275L89.3995 45.552H89.4635L89.6555 45.744V45.68L89.7195 45.36ZM90.0395 43.568L89.9755 43.376L89.7835 43.504V43.632L90.1035 43.696L90.0395 43.568ZM93.0475 44.016V43.824L92.9835 43.696L92.8555 43.76L92.7915 43.952L92.8555 43.888V44.016H93.0475ZM93.2395 44.528L93.1755 44.4L92.9835 44.464L93.1115 44.72V44.4L93.2395 44.528ZM94.9675 42.8L94.8395 42.736L94.7755 42.992H94.9675V42.8Z" fill="#F5F1D4"/>
<path d="M112.495 1.008C112.111 2.50134 111.62 4.12267 111.023 5.872C110.426 7.57867 109.786 9.30667 109.103 11.056C108.42 12.7627 107.716 14.4053 106.991 15.984H100.143C100.442 14.704 100.74 13.3813 101.039 12.016C101.338 10.6507 101.615 9.28534 101.871 7.92C102.17 6.512 102.426 5.168 102.639 3.888C102.895 2.608 103.108 1.41334 103.279 0.304001H112.047L112.495 1.008Z" fill="#F5F1D4"/>
<path d="M132.258 40.112L132.194 40.752L132.002 41.456L131.81 41.968L131.682 42.672L131.362 43.248L130.466 44.144L129.954 44.528L129.442 44.976L128.994 45.296L128.29 45.616L127.778 45.744L127.202 45.936L126.498 46L125.218 46.064L124.706 45.872L124.066 45.936H123.49L122.914 45.872L121.57 46L120.93 45.872L120.354 45.808L119.714 45.488L119.266 45.296L118.562 45.04L118.178 44.592L117.666 44.08L117.154 43.76L116.834 43.12L116.45 42.544L116.258 42.032L116.066 41.456L115.81 40.816L115.746 40.176L115.874 38.64L115.746 38.064L116.258 37.936V37.808L116.066 37.552L115.938 37.68L115.746 37.104L115.81 36.656L115.874 35.376L116.386 34.864L117.73 34.8L118.434 34.672L118.946 34.736L119.714 34.8L120.994 34.864L121.442 35.44L121.57 36.656L121.634 37.232L121.506 37.744V38.32L121.762 39.664L122.146 40.112L123.554 40.176L124.194 40.24L124.706 40.304L125.986 40.176L126.498 39.664L126.69 38.32V37.808L126.754 37.104L126.69 36.528L126.626 35.824V33.968L126.69 33.328L126.754 32.624V31.344L126.69 30.768L126.754 30.192L126.882 29.488L126.946 29.36L127.01 29.104L126.626 28.912L126.69 28.4L126.562 26.992L125.986 26.544H124.77L124.066 26.416H123.426L122.786 26.544L121.57 26.416L120.866 26.352L120.162 26.416L119.65 26.096L119.01 25.968L118.434 25.584L117.858 25.264L117.346 24.944L117.026 24.368L116.642 23.856L116.322 23.28L116.066 22.768L115.938 22.064V21.424L115.746 20.784V18.16L115.874 17.648L115.81 17.008L115.874 16.368L115.746 15.792L115.81 15.088L115.874 14.448L115.746 13.872V13.168L115.874 12.528H116.002L115.938 12.4L115.81 12.208V11.696L115.874 10.992V10.48L115.81 9.84L115.874 9.328L115.81 8.688L115.874 7.984L115.81 7.408L116.002 7.536L116.194 7.344L116.066 7.28L116.002 7.088L115.938 6.448L116.002 5.872L116.258 5.232L116.386 4.72L116.834 4.08L117.602 3.184L118.05 2.608L118.69 2.288L119.074 2.032L119.714 1.648L120.418 1.52L121.058 1.392L121.634 1.328L122.914 1.2H123.49L124.13 1.264L124.706 1.136L125.282 1.264H126.434L126.882 1.328L127.01 1.264L127.074 1.328H127.266H127.202L128.034 1.456L128.546 1.712L129.25 2.032L129.762 2.48L130.274 2.864V2.992L130.146 3.056L130.466 3.376L130.594 3.12H130.658L130.978 3.696L131.362 4.144L131.746 4.656L131.874 5.104L132.066 5.808L132.322 6.256V7.6L132.258 7.664L132.322 7.728L132.386 8.368V9.712L132.514 10.544L132.258 11.824L131.81 12.272L130.594 12.336H129.186L128.546 12.464L127.266 12.208L126.882 11.888L126.626 10.736L126.69 10.416L126.754 10.544L126.882 10.288H126.754V9.712L126.69 8.944L126.562 7.664L126.05 7.152L124.706 6.896L124.066 7.024L123.49 6.896L122.146 7.152L121.762 7.6L121.634 8.944L121.506 9.52L121.57 10.288L121.506 10.928L121.57 11.504L121.506 12.144L121.57 12.848V14.128L121.506 14.896V15.344L121.25 15.216H120.994L120.93 15.28H120.738L120.866 15.792L120.994 15.984L121.442 15.792L121.57 16.432L121.634 16.944L121.506 17.584L121.634 18.16L121.57 18.864L121.698 20.208L122.21 20.656L123.49 20.784L124.066 20.656L124.706 20.784H125.41L126.626 20.72L127.266 20.848H127.906L128.61 21.104L129.186 21.424L129.698 21.68L130.274 21.936L130.722 22.32L131.234 22.896L131.554 23.408L131.746 23.984L132.13 24.496L132.258 25.2L132.322 25.84V26.544L132.514 27.248L132.322 27.696L132.45 27.76L132.386 28.4V29.104L132.45 29.744V30.384L132.514 31.088V31.728L132.386 32.304V32.88L132.514 33.52L132.45 34.224V36.08L132.514 36.848L132.386 37.488L132.514 38.064V38.704L132.386 39.344L132.258 39.408V39.6L132.322 39.664L132.258 40.112ZM131.618 8.496L131.874 8.56L131.81 8.432V8.112L131.746 8.24V8.048L131.554 8.304L131.618 8.496ZM130.274 11.504L130.338 11.632V11.76L130.402 11.632L130.53 11.76V11.504L130.274 11.312V11.504ZM129.058 11.952L129.122 12.272L129.186 12.336L129.314 12.208L129.57 12.144L129.634 12.208L129.698 12.016L129.634 12.08L129.506 11.952H129.058ZM129.442 10.928L129.122 10.8L128.93 11.12L129.186 11.184H129.442V10.928ZM129.058 8.368H129.186L129.25 8.304L129.314 8.368V8.432L129.442 8.304L129.378 8.24L129.314 8.112L129.122 7.984L128.994 8.176L128.93 8.24L129.058 8.368ZM128.674 2.928H128.93V2.736L128.738 2.672H128.61L128.674 2.928ZM128.162 6H128.226V5.872L128.29 5.744L128.034 5.872L128.162 6ZM127.714 4.144L127.97 4.208L127.906 4.144L128.098 4.016L127.842 3.76H127.714V3.888L127.65 3.952L127.714 4.144ZM127.458 6L127.522 6.128H127.778L127.65 5.936L127.522 5.872L127.586 6H127.458ZM127.266 11.248L127.458 11.184L127.394 11.056L127.522 10.928L127.458 10.992H127.266L127.138 11.12L127.266 11.248ZM126.882 11.76L127.138 11.952L127.202 11.824L127.33 11.888L127.394 11.76V11.696L127.33 11.632L127.074 11.568L126.946 11.504L126.882 11.76ZM125.986 3.312L126.05 3.248H126.37V2.928L126.306 2.864H126.114L126.05 2.928L125.986 3.056V3.312ZM125.858 4.272L126.05 4.4V4.464L126.178 4.272L126.05 4.144L125.922 4.208L125.858 4.272ZM125.154 1.968L125.218 2.032V1.712H125.026L125.154 1.776V1.968ZM122.338 3.76L122.466 3.696L122.402 3.76L122.594 3.696V3.632L122.338 3.76ZM122.274 1.776L122.466 1.904L122.53 1.776H122.594L122.402 1.648L122.274 1.776ZM121.89 4.784L122.018 4.592L122.082 4.656H121.954L121.762 4.72L121.89 4.784ZM121.122 8.816L121.378 8.688L121.186 8.496L121.122 8.688V8.816ZM120.482 2.544L120.61 2.608L120.738 2.544V2.48L120.546 2.352L120.482 2.544ZM119.778 8.816L119.97 8.944L120.034 8.816L120.098 8.752H119.906L119.97 8.56L119.714 8.624L119.778 8.816ZM119.138 9.52H119.33L119.074 9.392L119.138 9.52ZM119.01 7.536L119.138 7.6L119.266 7.344L119.074 7.408H118.882L119.01 7.536ZM116.322 15.408H116.002L115.874 15.6L116.002 15.792L116.13 15.856L116.45 15.792L116.322 15.408ZM116.514 20.464V20.656H116.578V20.528L116.514 20.464ZM116.898 22.192V22.064L116.962 22.128L116.834 22.064H116.706L116.642 22.256H116.962L116.898 22.192ZM116.962 7.6L116.898 7.664L116.77 7.856L117.026 7.664V7.6H116.962ZM117.538 20.592H117.41L117.474 20.656L117.538 20.784L117.666 20.72L117.538 20.592ZM117.474 16.88L117.41 16.944L117.474 17.008L117.346 17.2H117.41L117.538 17.328L117.602 17.264L117.73 17.008L117.474 16.88ZM118.114 2.992L118.05 2.864V3.056H118.114L118.05 2.992H118.114ZM119.01 9.392L118.754 9.2L118.69 9.392L118.562 9.456L118.818 9.712V9.584L118.946 9.52L119.01 9.392ZM119.01 12.592L119.202 12.528L119.074 12.336L118.882 12.464H119.01V12.656V12.592ZM119.394 25.648L119.522 25.712L119.586 25.52L119.458 25.584L119.266 25.52L119.074 25.584L119.01 25.776L119.138 25.84H119.522L119.394 25.648ZM119.65 12.72H119.586V12.848L119.714 12.912L119.778 12.848L119.842 12.656L119.65 12.72ZM120.034 11.056L119.906 10.992L120.034 11.184H120.098V11.312L120.162 11.184L120.034 11.056ZM120.674 16.304L120.546 16.368L120.482 16.624H120.418L120.354 16.88L120.61 16.944H120.738L120.802 16.88L120.738 16.496L120.674 16.304ZM120.738 14.576L120.674 14.64H120.61V14.896L120.674 14.704L120.738 14.576ZM121.826 26.032H121.634L121.57 25.904L121.506 26.096L121.57 26.224L121.634 26.096L121.698 26.224L121.826 26.032ZM126.946 26.928L126.818 26.864V26.928H126.69L126.882 27.056L126.946 27.12V26.928ZM117.474 37.232L117.346 36.976L117.218 36.912L117.282 36.848L117.154 36.912L117.09 37.168L117.154 37.36L117.09 37.424H117.346L117.474 37.232ZM118.242 40.048H117.986V40.176H117.922L118.114 40.24L118.178 40.176L118.242 40.048ZM118.498 39.408H118.37V39.536H118.242H118.434L118.498 39.408ZM120.162 43.76L119.778 43.824L119.586 43.76L119.65 43.888L119.586 44.016V44.08L119.778 44.144L119.714 44.208L119.842 44.272H120.034L120.098 44.208L120.226 44.016L120.162 43.76ZM127.778 24.176L127.97 24.112L127.906 23.984L127.714 23.92L127.586 23.856L127.65 24.176H127.778ZM126.498 45.232L126.37 45.296L126.434 45.424L126.306 45.552L126.498 45.424H126.626L126.498 45.232ZM126.946 44.976H126.818L126.69 45.04H126.562L126.69 45.168L126.754 45.36L126.882 45.296L126.946 45.168H127.074L126.946 44.976ZM127.522 30.256L127.586 30.192L127.522 30.128L127.266 30.256H127.202H127.522ZM127.586 40.56L127.522 40.688L127.458 40.624V40.816H127.394V41.008L127.586 41.072H127.65L127.778 41.008L127.714 40.816L127.586 40.56ZM128.098 39.024L127.97 38.96V39.024L127.65 39.216L127.842 39.344L128.098 39.216V39.024ZM128.162 38.32L128.034 38.384V38.64H128.162L128.29 38.448V38.384L128.162 38.32ZM129.186 41.52L128.994 41.392H128.802V41.712L128.866 41.776V41.904L128.93 41.968H129.186V41.52ZM129.314 44.08L129.25 44.208V44.4L129.314 44.336H129.506L129.314 44.08ZM129.634 42.48L129.506 42.16L129.57 42.224L129.314 42.288L129.186 42.352L129.378 42.8H129.57L129.762 42.736L129.634 42.48ZM130.082 30.064L130.21 30V29.808L130.082 29.68L129.826 29.936L129.762 30.064H130.082ZM130.146 34.544L130.018 34.672L129.89 34.736H130.146L130.082 34.672L130.146 34.544ZM132.066 36.784L132.194 37.04L132.386 36.848L132.258 36.656L132.066 36.784ZM130.85 29.168H130.722V29.296L130.85 29.36L130.978 29.296L130.85 29.168ZM131.682 29.488L131.746 29.552L131.618 29.424L131.49 29.36L131.362 29.232L131.298 29.488L131.234 29.616L131.298 29.808L131.682 29.616V29.488ZM131.81 39.664H131.746L131.682 39.792H131.618L131.682 39.92H131.81V39.664ZM132.066 32.816H132.258L132.13 32.752L132.066 32.56V32.624L132.002 32.752L132.066 32.816ZM132.258 37.36L132.322 37.104L132.194 37.04L132.13 37.104L132.066 37.232V37.36L132.194 37.424L132.258 37.36Z" fill="#F5F1D4"/>
</svg>
